<svg xmlns="http://www.w3.org/2000/svg" width="604.8" height="918.387" viewBox="0 0 16002 24299" shape-rendering="geometricPrecision" text-rendering="geometricPrecision" image-rendering="optimizeQuality" fill-rule="evenodd" clip-rule="evenodd"><path fill="#410c3a" d="M16002 0H8836l7166 19941z"/><path d="M16002 24299v-3926c-954 1039-2082 1756-3603 2300-1247 447-2639 716-4009 940-601 98-3989 499-4255 686h11867z" fill="#d93611"/><path d="M16002 19293v-1141c-493 669-1039 1291-1698 1822l-783 566c-756 491-1737 835-2672 956-412 53-1314 108-1720 71l-714 33c-412 10-1640 181-1985 238-740 123-2277 480-2956 749-535 212-1033 359-1587 636-307 154-1739 875-1887 1076h1943c20-17 15-16 51-39l435-205c1095-526 2775-945 3982-1127 845-127 1763-187 2640-270 2314-219 4571-1072 6180-2551 263-242 523-518 771-814z" fill="#ffe577"/><path d="M16002 20373v-1080c-248 296-508 572-771 814-1609 1479-3866 2332-6180 2551-877 83-1795 143-2640 270-1207 182-2887 601-3982 1127l-435 205c-36 23-31 22-51 39h2192c266-187 3654-588 4255-686 1370-224 2762-493 4009-940 1521-544 2649-1261 3603-2300z" fill="#f38241"/></svg>