<?xml version="1.0" encoding="UTF-8"?>
<!DOCTYPE svg PUBLIC "-//W3C//DTD SVG 1.1//EN" "http://www.w3.org/Graphics/SVG/1.1/DTD/svg11.dtd">
<!-- Creator: CorelDRAW X8 -->
<svg xmlns="http://www.w3.org/2000/svg" xml:space="preserve" width="300mm" height="300mm" version="1.1" style="shape-rendering:geometricPrecision; text-rendering:geometricPrecision; image-rendering:optimizeQuality; fill-rule:evenodd; clip-rule:evenodd"
viewBox="0 0 30000 30000"
 xmlns:xlink="http://www.w3.org/1999/xlink">
 <defs>
  <style type="text/css">
   <![CDATA[
    .fil1 {fill:#420F3A}
    .fil0 {fill:#F5E617}
   ]]>
  </style>
 </defs>
 <g id="Capa_x0020_1">
  <metadata id="CorelCorpID_0Corel-Layer"/>
  <g id="_678963152">
   <path class="fil0" d="M12593 10362c183,258 387,494 610,704 -219,-210 -422,-446 -610,-704z"/>
   <path class="fil0" d="M18512 11076c230,-217 441,-461 629,-729 -193,268 -403,512 -629,729z"/>
   <path class="fil1" d="M15142 13342l0 1101c-1065,313 -1847,1301 -1847,2463l0 10527c0,1412 1155,2567 2567,2567l0 0c1412,0 2568,-1155 2568,-2567l0 -10527c0,-1162 -783,-2150 -1847,-2464l0 -1100 0 -1433c2028,-466 3576,-2937 3576,-5915 0,-3310 -1913,-5994 -4272,-5994 -2359,0 -4271,2684 -4271,5994 0,2954 1522,5409 3526,5903l0 1445z"/>
   <path class="fil1" d="M5979 14442l0 -2344c2016,-407 3551,-2492 3551,-5003l0 -6351c0,-396 -324,-721 -721,-721l0 0c-396,0 -720,325 -720,721l0 6351 -2110 0 0 -6351c0,-396 -324,-721 -721,-721l0 0c-396,0 -720,325 -720,721l0 6351 -2110 0 0 -6370c0,-386 -316,-702 -702,-702l-37 0c-386,0 -702,316 -702,702l0 6370c0,2525 1551,4619 3584,5009l-33 -6 0 2345c-1065,313 -1847,1301 -1847,2463l0 10527c0,1412 1155,2567 2567,2567l0 0c1412,0 2568,-1155 2568,-2567l0 -10527c0,-1162 -783,-2150 -1847,-2464zm-299 -2297c-26,4 -53,6 -80,9 27,-3 54,-5 80,-9zm-102 11c-29,3 -58,5 -88,7 30,-2 59,-4 88,-7zm-108 8c-32,2 -65,3 -97,4 32,-1 65,-2 97,-4zm-108 5c-35,1 -69,1 -104,1 -34,0 -69,0 -103,-1 34,1 69,1 103,1 35,0 69,0 104,-1zm-218 -1c-33,-1 -65,-2 -97,-4 32,2 64,3 97,4zm-112 -5c-31,-2 -62,-4 -93,-7 31,3 62,5 93,7zm-116 -9c-26,-3 -52,-5 -79,-8 27,3 53,5 79,8z"/>
   <path class="fil0" d="M15430 12154c-26,-3 -52,-5 -78,-8 26,3 52,5 78,8z"/>
   <path class="fil0" d="M15546 12163c-31,-2 -62,-4 -93,-7 31,3 62,5 93,7z"/>
   <path class="fil0" d="M15658 12168c-33,-1 -65,-2 -97,-4 32,2 64,3 97,4z"/>
   <path class="fil0" d="M15876 12169c-35,1 -69,1 -104,1 -34,0 -69,0 -103,-1 34,1 69,1 103,1 35,0 69,0 104,-1z"/>
   <path class="fil0" d="M15984 12164c-32,2 -65,3 -97,4 32,-1 65,-2 97,-4z"/>
   <path class="fil0" d="M16092 12156c-29,3 -58,5 -88,7 30,-2 59,-4 88,-7z"/>
   <path class="fil0" d="M16194 12145c-26,4 -53,6 -80,9 27,-3 54,-5 80,-9z"/>
   <path class="fil1" d="M24021 17530c0,0 -1799,-435 -1784,-2485 15,-2051 0,-9540 0,-9540 0,0 906,-5445 5445,-5445l1331 0 0 5000 0 22444c0,1373 -1123,2496 -2496,2496l0 0c-1373,0 -2496,-1123 -2496,-2496l0 -9974z"/>
  </g>
 </g>
</svg>
