<svg xmlns="http://www.w3.org/2000/svg" width="300mm" height="300mm" viewBox="0 0 30000 30000" shape-rendering="geometricPrecision" text-rendering="geometricPrecision" image-rendering="optimizeQuality" fill-rule="evenodd" clip-rule="evenodd"><defs><style>.fil1{fill:#420f3a}.fil0{fill:#f5e617}</style></defs><g id="Capa_x0020_1"><g id="_678963152"><path class="fil0" d="M12593 10362c183 258 387 494 610 704-219-210-422-446-610-704zM18512 11076c230-217 441-461 629-729-193 268-403 512-629 729z"/><path class="fil1" d="M15142 13342v1101c-1065 313-1847 1301-1847 2463v10527c0 1412 1155 2567 2567 2567s2568-1155 2568-2567V16906c0-1162-783-2150-1847-2464v-2533c2028-466 3576-2937 3576-5915 0-3310-1913-5994-4272-5994s-4271 2684-4271 5994c0 2954 1522 5409 3526 5903v1445zM5979 14442v-2344c2016-407 3551-2492 3551-5003V744c0-396-324-721-721-721-396 0-720 325-720 721v6351H5979V744c0-396-324-721-721-721-396 0-720 325-720 721v6351H2428V725c0-386-316-702-702-702h-37c-386 0-702 316-702 702v6370c0 2525 1551 4619 3584 5009l-33-6v2345c-1065 313-1847 1301-1847 2463v10527c0 1412 1155 2567 2567 2567s2568-1155 2568-2567V16906c0-1162-783-2150-1847-2464zm-299-2297c-26 4-53 6-80 9 27-3 54-5 80-9zm-102 11c-29 3-58 5-88 7 30-2 59-4 88-7zm-108 8c-32 2-65 3-97 4 32-1 65-2 97-4zm-108 5c-35 1-69 1-104 1-34 0-69 0-103-1 34 1 69 1 103 1 35 0 69 0 104-1zm-218-1c-33-1-65-2-97-4 32 2 64 3 97 4zm-112-5c-31-2-62-4-93-7 31 3 62 5 93 7zm-116-9c-26-3-52-5-79-8 27 3 53 5 79 8z"/><path class="fil0" d="M15430 12154c-26-3-52-5-78-8 26 3 52 5 78 8zM15546 12163c-31-2-62-4-93-7 31 3 62 5 93 7zM15658 12168c-33-1-65-2-97-4 32 2 64 3 97 4zM15876 12169c-35 1-69 1-104 1-34 0-69 0-103-1 34 1 69 1 103 1 35 0 69 0 104-1zM15984 12164c-32 2-65 3-97 4 32-1 65-2 97-4zM16092 12156c-29 3-58 5-88 7 30-2 59-4 88-7zM16194 12145c-26 4-53 6-80 9 27-3 54-5 80-9z"/><path class="fil1" d="M24021 17530s-1799-435-1784-2485c15-2051 0-9540 0-9540S23143 60 27682 60h1331v27444c0 1373-1123 2496-2496 2496s-2496-1123-2496-2496v-9974z"/></g></g></svg>