<svg xmlns="http://www.w3.org/2000/svg" width="743.679" height="505.92" viewBox="0 0 19677 13386" shape-rendering="geometricPrecision" text-rendering="geometricPrecision" image-rendering="optimizeQuality" fill-rule="evenodd" clip-rule="evenodd"><defs><style>.fil1{fill:#aa619f}</style></defs><g id="Capa_x0020_1"><path fill="red" d="M13465 7297v-2 1z"/><g id="_3030145788848"><path class="fil1" d="M12794 1779l1954 1954-4438 4438-2122 450c-181 1-276-98-271-274l439-2130 4438-4438zM16058 386l83 83c514 514 514 1356 0 1871l-799 798-1954-1954 799-798c514-515 1356-515 1871 0z"/><path class="fil1" d="M4851 2239h4426c311 0 566 254 566 565 0 312-255 566-566 566H4780c-279 0-508 229-508 508v7887c0 280 229 508 508 508h7891c279 0 508-228 508-508V7254c0-311 255-566 566-566s566 255 566 566l-9 4431c0 935-766 1701-1702 1701H4851c-936 0-1701-766-1701-1701V3940c0-936 765-1701 1701-1701z"/></g></g></svg>