<?xml version="1.0" encoding="UTF-8"?>
<!DOCTYPE svg PUBLIC "-//W3C//DTD SVG 1.1//EN" "http://www.w3.org/Graphics/SVG/1.1/DTD/svg11.dtd">
<!-- Creator: CorelDRAW X8 -->
<svg xmlns="http://www.w3.org/2000/svg" xml:space="preserve" width="300mm" height="300mm" version="1.1" style="shape-rendering:geometricPrecision; text-rendering:geometricPrecision; image-rendering:optimizeQuality; fill-rule:evenodd; clip-rule:evenodd"
viewBox="0 0 30000 30000"
 xmlns:xlink="http://www.w3.org/1999/xlink">
 <defs>
  <style type="text/css">
   <![CDATA[
    .fil0 {fill:#AA619F}
   ]]>
  </style>
 </defs>
 <g id="Capa_x0020_1">
  <metadata id="CorelCorpID_0Corel-Layer"/>
  <g id="_872023832">
   <path class="fil0" d="M15489 967c844,0 1529,685 1529,1529 0,844 -685,1529 -1529,1529 -845,0 -1529,-685 -1529,-1529 0,-844 684,-1529 1529,-1529zm0 1020c281,0 509,228 509,509 0,281 -228,509 -509,509 -282,0 -510,-228 -510,-509 0,-281 228,-509 510,-509z"/>
   <rect class="fil0" x="10943" y="475" width="1124" height="1124"/>
   <rect class="fil0" x="18976" y="4947" width="1124" height="1124"/>
   <rect class="fil0" x="21430" y="11453" width="1124" height="1124"/>
   <rect class="fil0" x="17425" y="13484" width="1124" height="1124"/>
   <path class="fil0" d="M22063 19005c-333,0 -667,0 -1000,0 305,-406 634,-891 508,-2929 -375,-453 -2704,91 -3083,410 -372,313 -910,914 -923,1520 -670,-449 -644,-1000 -2249,-1000 -535,0 -926,221 -1250,437 7,-313 788,-3471 881,-3929 132,-647 128,-1245 -395,-1803 -466,-498 -793,-702 -1735,-702 -93,-1118 -2455,-3038 -4615,-1429 -353,262 -963,901 -1007,1429 -753,0 -1107,122 -1516,484 -1371,1214 -265,2769 141,4514l-1812 -3 1 1689c0,693 330,1075 437,1312 -2195,0 -2736,-435 -2393,1581 295,1739 988,2996 1999,4249l744 817c105,106 182,163 291,271 361,359 675,665 1090,971 275,203 971,778 1268,857 0,438 1,876 -2,1313 -2,302 32,936 439,936l14243 0c629,0 437,-1649 437,-2249 738,-197 2304,-1786 2983,-2452 331,-325 563,-653 846,-1028 526,-697 947,-1512 1255,-2431 118,-351 842,-2835 -23,-2835l-1937 0 1449 -6172c251,-998 482,-2058 737,-3073 140,-553 353,-1014 -239,-1260 -263,-110 -2077,-567 -2271,-504 -267,87 -329,263 -406,534 -152,531 -262,990 -417,1520l-2476 8955zm1124 0l1374 0 2249 -9620 -937 -250 -2686 9870zm-11682 -999c613,0 1256,491 1375,999l-2749 0c118,-508 761,-999 1374,-999zm3998 0c613,0 1256,491 1375,999l-2749 0c235,-443 562,-999 1374,-999zm3374 999l-375 0c0,-1399 455,-1999 1936,-1999 0,565 58,1174 -453,1609 -258,219 -651,390 -1108,390zm-11932 -6996c368,0 952,436 1151,-411 195,-832 914,-1526 1660,-1526 769,0 1234,8 1823,739 171,213 249,410 336,726 51,188 37,225 138,362 432,589 884,-245 1588,348 545,459 214,1227 77,1850 -92,420 -156,703 -251,1122l-525 2224c-624,-417 -878,-437 -1624,-437 -979,0 -1901,767 -2201,1672 -129,390 124,327 -1048,327 0,-863 -138,-1464 -524,-1974 -247,-327 -396,-280 -533,-717l-872 -2876c-305,-1011 376,-1429 805,-1429zm-1280 10057l-2051 0c28,340 536,1130 724,1400 828,1190 1923,2265 3124,3061 527,349 551,410 938,416l186 0c135,-1 305,-4 525,-4l5186 -1c179,-1 376,5 527,5l247 0 0 1125 -1125 0 -1124 0 -1125 0 -1124 0 -1125 0 -899 0 0 870 12869 0 0 -870 -833 0 -1124 0 0 -1125 131 0c699,0 1399,0 2098,0 157,-19 298,-64 443,-164 1310,-897 1345,-936 2455,-2042l704 -796c266,-372 1025,-1439 1061,-1875l-9370 0c-257,1 -501,17 -691,0l-84 0 -75 0c-131,0 -239,-107 -239,-238l0 -648c0,-131 108,-238 239,-238l38 0 37 0 449 0 1111 0 14 0 60 0 14 0 2147 0 14 0 6732 0 41 0c82,-251 167,-539 72,-937l-23739 0c-54,421 -23,568 54,937l2488 0 399 0 1110 0 14 0 1111 0 524 0c131,0 238,107 238,238l0 648c0,131 -107,238 -238,238l-524 0 -1111 0 -14 0 -1110 0 -399 0zm-677 -4685c0,-396 -21,-375 375,-375 502,0 953,211 1204,483 296,320 695,1516 233,1516 -1077,0 -1812,-535 -1812,-1624z"/>
   <path class="fil0" d="M4009 7448c0,828 921,625 2124,625 1686,0 3725,-135 4535,-1462 1077,-1766 513,-3910 -1662,-3910 -1697,0 -2300,543 -3248,1811 -320,428 -1749,2504 -1749,2936zm2499 -437l1436 -875 0 750c-502,125 -1029,125 -1436,125zm-500 -1000c182,-343 402,-685 625,-937l666 167 -1291 770zm3061 625l0 -1187 1062 -624c0,895 -355,1437 -1062,1811zm-1562 -2436c336,-502 1599,-534 2062,-313l-909 577 -1153 -264z"/>
   <line class="fil0" x1="6008" y1="6011" x2="6008" y2= "6011" />
   <path class="fil0" d="M15191 8260c0,-495 520,-499 812,-499 810,0 2401,1786 2811,2561 -550,0 -1880,-347 -2272,-539 -326,-161 -597,-360 -836,-601 -243,-243 -515,-459 -515,-922zm-2186 -2561c0,745 629,1788 1186,1937 -41,500 -337,848 349,1838 467,674 1375,1256 2190,1496 506,149 3771,1037 3771,164 0,-553 -348,-819 -892,-1544 -328,-436 -614,-809 -963,-1224 -771,-918 -1664,-1667 -2955,-1667 -511,0 -923,573 -1481,-519 -112,-220 -144,-353 -144,-668l-1061 0 0 187z"/>
   <path class="fil0" d="M19127 1076c820,0 1382,-5 2016,608 307,297 688,740 732,1266 -918,0 -1302,-47 -1849,-461 -336,-255 -885,-886 -899,-1413zm-1125 -687c0,1520 702,2651 1914,3271 913,466 1636,352 2709,352 997,0 98,-3998 -2936,-3998 -628,0 -1576,-127 -1687,375z"/>
   <rect class="fil0" x="9881" y="20942" width="1124" height="1124"/>
   <rect class="fil0" x="11943" y="20942" width="1124" height="1124"/>
   <rect class="fil0" x="13938" y="20942" width="1124" height="1124"/>
   <rect class="fil0" x="7955" y="13935" width="1124" height="1124"/>
   <rect class="fil0" x="10440" y="14945" width="1124" height="1124"/>
   <path class="fil0" d="M22495 5490c844,0 1529,685 1529,1529 0,845 -685,1529 -1529,1529 -844,0 -1529,-684 -1529,-1529 0,-844 685,-1529 1529,-1529zm0 1020c281,0 509,228 509,509 0,282 -228,510 -509,510 -281,0 -509,-228 -509,-510 0,-281 228,-509 509,-509z"/>
  </g>
 </g>
</svg>
