<svg xmlns="http://www.w3.org/2000/svg" width="743.679" height="505.92" viewBox="0 0 19677 13386" shape-rendering="geometricPrecision" text-rendering="geometricPrecision" image-rendering="optimizeQuality" fill-rule="evenodd" clip-rule="evenodd"><defs><style>.fil0{fill:#aa619f}</style></defs><g id="Capa_x0020_1"><g id="_3030145812112"><path class="fil0" d="M10056 431c377 0 682 306 682 683 0 376-305 682-682 682-376 0-682-306-682-682 0-377 306-683 682-683zm0 455c126 0 228 102 228 228 0 125-102 227-228 227-125 0-227-102-227-227 0-126 102-228 227-228zM8028 212h502v502h-502zM11612 2207h502v502h-502zM12707 5110h502v502h-502zM10920 6016h502v502h-502z"/><path class="fil0" d="M12990 8480h-446c135-181 282-398 226-1307-167-202-1206 41-1375 183-167 140-406 408-412 678-299-200-288-446-1004-446-238 0-413 99-557 195 3-140 351-1549 393-1753 58-289 57-556-177-805-208-222-353-313-774-313-41-499-1095-1355-2059-638-157 118-430 402-449 638-336 0-494 55-677 216-611 542-118 1236 63 2014l-808-1v754c0 308 148 479 195 585-979 0-1220-194-1068 705 132 776 441 1337 892 1896l332 365c47 47 82 73 130 121 161 160 301 296 487 433 122 91 433 347 565 382 0 196 1 391-1 586-1 135 15 418 196 418h6355c281 0 196-736 196-1004 329-88 1028-797 1330-1094 148-145 252-291 378-458 235-312 423-675 560-1085 52-157 376-1265-11-1265h-864l647-2754c112-445 215-918 329-1371 62-247 157-453-107-563-117-48-927-252-1013-224-119 39-147 117-182 238-67 237-116 442-185 678l-1105 3996zm501 0h614l1003-4293-418-111-1199 4404zm-5212-446c273 0 560 219 613 446H7666c53-227 340-446 613-446zm1784 0c273 0 560 219 613 446H9450c104-198 251-446 613-446zm1505 446h-167c0-624 203-892 864-892 0 252 26 524-202 718-116 98-291 174-495 174zM6244 5358c164 0 425 195 514-183 87-371 407-681 740-681 343 0 551 4 814 330 76 95 111 183 150 324 23 83 16 100 61 161 193 263 395-109 709 155 243 205 95 548 34 826-41 188-69 314-112 501l-234 992c-278-186-392-195-725-195-437 0-848 342-982 746-57 174 56 146-467 146 0-385-62-654-234-881-111-146-177-125-238-320l-389-1283c-136-451 168-638 359-638zm-571 4488h-915c13 151 239 504 323 624 369 531 858 1011 1394 1366 235 156 246 183 418 186h83c61-1 136-2 235-2h2314c79-1 167 2 235 2h110v502H6960v388h5742v-388h-873v-502h994c70-9 133-29 198-73 584-400 600-418 1096-912l313-355c119-166 458-642 474-836h-4181c-115 0-224 7-308 0h-71c-59 0-107-48-107-107v-289c0-58 48-106 107-106h4755c37-112 75-240 32-418H4539c-24 188-11 254 24 418h2519c59 0 106 48 106 106v289c0 59-47 107-106 107H5673zm-302-2091c0-177-10-167 167-167 224 0 426 94 538 215 131 143 310 677 103 677-480 0-808-239-808-725zM4934 3323c0 370 411 279 948 279 752 0 1662-60 2023-652 481-788 229-1745-741-1745-757 0-1026 243-1449 808-143 191-781 1118-781 1310zm1115-195l641-390v334c-224 56-459 56-641 56zm-223-446c81-153 180-306 279-418l297 75-576 343zm1366 279v-530l474-278c0 399-159 641-474 808zm-697-1087c150-224 713-238 920-139l-406 257-514-118zM5826 2682"/><path class="fil0" d="M9923 3686c0-221 232-223 363-223 361 0 1071 797 1254 1143-245 0-839-155-1014-241-145-72-266-160-373-268-108-109-230-205-230-411zm-975-1143c0 332 281 798 529 864-18 223-150 378 156 820 208 301 613 561 977 668 226 66 1683 462 1683 73 0-247-156-365-398-689-147-195-274-361-430-546-344-410-742-744-1319-744-228 0-411 256-660-232-50-98-64-157-64-298h-474v84zM11680 480c365 0 616-2 899 271 137 133 307 331 327 565-410 0-581-21-825-206-150-113-395-395-401-630zm-502-306c0 678 313 1182 854 1459 407 208 730 157 1208 157 445 0 44-1784-1310-1784-280 0-703-56-752 168zM7554 9344h502v502h-502zM8474 9344h502v502h-502zM9364 9344h502v502h-502zM6695 6218h502v502h-502zM7803 6668h502v502h-502zM13183 2450c376 0 682 305 682 682s-306 682-682 682c-377 0-683-305-683-682s306-682 683-682zm0 455c125 0 227 101 227 227 0 125-102 227-227 227-126 0-228-102-228-227 0-126 102-227 228-227z"/></g></g></svg>