<svg xmlns="http://www.w3.org/2000/svg" width="743.679" height="505.92" viewBox="0 0 19677 13386" shape-rendering="geometricPrecision" text-rendering="geometricPrecision" image-rendering="optimizeQuality" fill-rule="evenodd" clip-rule="evenodd"><defs><style>.fil0{fill:#ab619f}</style></defs><g id="Capa_x0020_1"><g id="_3030144483968"><path class="fil0" d="M3389 11445h477c31 133 71 257 136 372 612 1081 2142 602 2223-372h478c0 194-94 443-169 577-191 339-402 561-762 732-625 297-1396 174-1883-316-273-275-447-575-500-993zm985 0h1344c-11 475-873 760-1256 210-74-106-42-107-88-210zm9764-179c0-435 344-747 717-747 976 0 900 1434 89 1434h-149c-343 0-657-343-657-687zm-478-60c0 645 522 1224 1105 1224 326 0 498-8 781-204 79-54 151-105 210-179 349-435 405-914 144-1408 189 50 627 552 627 716 0 802-776 1553-1583 1553-879 0-1571-522-1715-1330-51-285-60-253 67-438 101-148 124-188 252-315 129-127 170-175 321-276-26 111-209 388-209 657zm-1254-926h-1732c47-198 133-279 179-477h1792c-21 78-190 386-239 477zm329 717c0-271 130-564 228-757 89-176 294-458 437-578 1057-880 2396-709 3162 255 212 267 435 728 442 1080-168-4-75 8-132-47-45-42-251-415-721-741-1029-715-2491-480-3202 585-34 51-43 80-80 128-67 87-11 65-134 75zm-3076 0H2672c-8-344-1-574 27-928 239-2078 1599-3167 3437-3849h3643c107 0 347 173 423 233 1172 931 406 2846-115 3897-65 131-122 227-191 347-38 68-147 300-237 300zM7151 4786h2448v956H6255c0-495 388-956 896-956zm-4001-477h2150v1433H3150V4309zm-508-568v-627h3135v717H2732c-69 0-90-21-90-90zm11496-686l746-120v836l-746-149v-567zm-717 447v-388h239v478h-149c-69 0-90-21-90-90zM11510 994c0-671 956-683 956-30 0 363-433 645-796 348-68-56-160-208-160-318zm-477-59c0 513 437 955 836 955h239c322 0 716-341 776-597 152 35 270 101 414 153 64 23 122 43 197 72 86 32 165 37 165 133v986h-2150c-318 0-297 477 30 477h1404c0 591-81 782 170 935 187 114 353 620 423 831 439 1312 239 2787-194 4039-181 526-304 406-937 406h-1373c193-403 239-1160 239-1642 0-708-394-1364-956-1733-79-52-160-95-239-148v-866c0-301 66-627-239-627H7121c-604 0-1314 601-1314 1224l-30-1224c604 0 478-81 478-1404 0-144-85-268-239-268H2433c-109 0-239 82-239 179v1254c0 284 282 239 478 239v1433c-196 0-478-45-478 239 0 261 217 240 478 239h2180c-31 27 6 1-52 37-2117 1475-2606 2424-2606 5009 0 248 463 179 717 179 21 952 1009 1941 1971 1941 721 0 1165-106 1679-620 297-297 535-671 602-1100 15-97-1-167 62-207 54-33 2061-17 2434-14 249 2 271 37 397-111 72-85 131-186 191-287 39-65 51-81 88-151 40-77 40-138 130-138h1792c-52 692-110 717 478 717 0 941 1061 1911 1911 1911 701 0 1194-73 1724-605 295-295 590-776 634-1306 433 0 478-1 478-358 0-570-281-1168-544-1487-233-283-795-810-1188-843 5-185 60-533 60-865 0-509 13-897-34-1399-61-643-566-504-496-13 66 462 93 1699-7 2128-182 0-240-30-389-30-379 0-683 109-985 179 17-206 358-1009 358-2299 0-876-235-1848-537-2418 382 0 550 124 829 425 483 519 428 1178 810 1007 285-128 20-596-117-834l-238-389c156 75 328-27 328-209V2577c0-78-132-179-179-179-251 0-778 174-1015 179 0-1723 187-1165-1111-1755-217-99-34-213-344-523-663-662-1650-125-1650 636z"/><path d="M4344 10280c0 136 71 239 239 239h3822c325 0 306-477-30-477H4583c-144 0-239 94-239 238z" fill="#ab60a0"/><path class="fil0" d="M5777 8847c0 145 95 239 239 239h3106c346 0 291-478-30-478H6046c-144 0-269 85-269 239zM7211 7414c0 144 94 239 239 239h2090c434 0 357-478 59-478H7450c-145 0-239 95-239 239z"/></g></g></svg>