<?xml version="1.0" encoding="UTF-8"?>
<!DOCTYPE svg PUBLIC "-//W3C//DTD SVG 1.1//EN" "http://www.w3.org/Graphics/SVG/1.1/DTD/svg11.dtd">
<!-- Creator: CorelDRAW X8 -->
<svg xmlns="http://www.w3.org/2000/svg" xml:space="preserve" width="300mm" height="300mm" version="1.1" style="shape-rendering:geometricPrecision; text-rendering:geometricPrecision; image-rendering:optimizeQuality; fill-rule:evenodd; clip-rule:evenodd"
viewBox="0 0 30000 30000"
 xmlns:xlink="http://www.w3.org/1999/xlink">
 <defs>
  <style type="text/css">
   <![CDATA[
    .fil1 {fill:#AB60A0}
    .fil0 {fill:#AB619F}
   ]]>
  </style>
 </defs>
 <g id="Capa_x0020_1">
  <metadata id="CorelCorpID_0Corel-Layer"/>
  <g id="_870226808">
   <path class="fil0" d="M2344 24325l937 0c61,260 138,504 266,730 1202,2122 4204,1182 4363,-730l938 0c0,382 -185,870 -333,1133 -374,665 -787,1100 -1494,1435 -1226,583 -2740,343 -3696,-619 -536,-540 -876,-1129 -981,-1949zm1933 0l2637 0c-21,932 -1712,1492 -2464,413 -145,-208 -82,-211 -173,-413zm19161 -351c0,-853 675,-1465 1406,-1465 1916,0 1767,2812 176,2812l-293 0c-673,0 -1289,-672 -1289,-1347zm-938 -118c0,1266 1023,2403 2168,2403 640,0 977,-17 1533,-401 154,-106 295,-207 411,-351 685,-853 796,-1794 283,-2764 371,99 1230,1084 1230,1406 0,1573 -1523,3047 -3105,3047 -1725,0 -3084,-1025 -3367,-2611 -99,-559 -117,-494 132,-858 199,-291 244,-369 495,-618 253,-250 334,-343 630,-542 -51,218 -410,761 -410,1289zm-2461 -1816l-3398 0c90,-390 260,-548 351,-938l3516 0c-41,155 -374,758 -469,938zm645 1406c0,-532 256,-1107 448,-1485 175,-346 576,-900 858,-1134 2073,-1728 4701,-1393 6204,500 416,524 853,1429 868,2119 -331,-7 -148,15 -259,-91 -89,-84 -493,-816 -1416,-1456 -2019,-1402 -4888,-941 -6282,1148 -67,100 -84,157 -158,253 -131,170 -20,126 -263,146zm-6036 0l-13710 0c-16,-674 -2,-1127 53,-1821 469,-4077 3137,-6215 6743,-7554l7149 0c211,0 682,341 830,459 2300,1826 797,5583 -224,7647 -128,257 -241,446 -375,680 -76,134 -290,589 -466,589zm-4921 -12187l4804 0 0 1875 -6562 0c0,-971 760,-1875 1758,-1875zm-7852 -938l4219 0 0 2813 -4219 0 0 -2813zm-996 -1113l0 -1231 6152 0 0 1407 -5976 0c-135,0 -176,-41 -176,-176zm22559 -1348l1464 -234 0 1641 -1464 -293 0 -1114zm-1407 879l0 -762 469 0 0 938 -293 0c-135,0 -176,-41 -176,-176zm-3750 -4922c0,-1317 1875,-1340 1875,-58 0,712 -849,1265 -1561,682 -134,-110 -314,-409 -314,-624zm-937 -117c0,1008 858,1875 1640,1875l469 0c633,0 1407,-670 1524,-1172 297,70 530,198 813,300 125,45 238,86 386,141 169,64 324,75 324,262l0 1934 -4219 0c-624,0 -584,937 59,937l2754 0c0,1159 -159,1534 334,1835 368,224 692,1217 830,1630 863,2575 468,5469 -380,7925 -357,1033 -597,798 -1839,798 -898,0 -1797,0 -2695,0 379,-791 469,-2277 469,-3223 0,-1388 -773,-2676 -1875,-3399 -155,-102 -314,-188 -469,-292 0,-566 0,-1133 0,-1699 0,-590 129,-1231 -469,-1231l-5332 0c-1185,0 -2578,1181 -2578,2403l-59 -2403c1184,0 938,-157 938,-2754 0,-283 -167,-527 -469,-527l-7031 0c-214,0 -469,162 -469,352l0 2461c0,557 552,468 938,468l0 2813c-386,0 -938,-89 -938,468 0,514 426,472 937,469l4278 0c-61,53 13,3 -102,74 -4153,2895 -5113,4757 -5113,9829 0,486 909,351 1406,351 42,1868 1980,3809 3867,3809 1416,0 2287,-207 3296,-1216 583,-583 1049,-1317 1182,-2159 30,-191 -3,-328 121,-405 106,-67 4045,-34 4777,-28 488,4 531,72 778,-219 142,-167 258,-365 375,-562 76,-128 101,-160 172,-297 78,-151 79,-271 256,-271l3516 0c-102,1358 -216,1407 938,1407 0,1846 2082,3750 3750,3750 1375,0 2344,-143 3384,-1186 578,-579 1158,-1523 1244,-2564 849,0 938,-2 938,-703 0,-1118 -552,-2291 -1068,-2917 -457,-555 -1560,-1590 -2330,-1654 8,-364 117,-1046 117,-1699 0,-997 26,-1759 -67,-2745 -120,-1262 -1110,-989 -973,-26 129,907 181,3335 -15,4177 -356,0 -469,-58 -762,-58 -745,0 -1340,213 -1933,351 33,-404 703,-1980 703,-4511 0,-1721 -462,-3627 -1055,-4746 750,0 1079,244 1627,834 947,1018 840,2312 1589,1977 561,-252 39,-1170 -230,-1637l-466 -764c307,147 644,-53 644,-410l0 -2930c0,-154 -259,-352 -351,-352 -494,0 -1527,341 -1992,352 0,-3382 366,-2286 -2181,-3445 -426,-193 -66,-417 -675,-1024 -1301,-1300 -3238,-246 -3238,1246z"/>
   <path class="fil1" d="M4219 22040c0,267 140,469 468,469l7501 0c637,0 600,-938 -59,-938l-7442 0c-283,0 -468,186 -468,469z"/>
   <path class="fil0" d="M7031 19228c0,283 186,468 469,468l6094 0c679,0 571,-937 -59,-937l-5976 0c-284,0 -528,166 -528,469z"/>
   <path class="fil0" d="M9844 16415c0,283 185,469 469,469l4101 0c852,0 701,-938 117,-938l-4218 0c-284,0 -469,186 -469,469z"/>
  </g>
 </g>
</svg>
