<svg xmlns="http://www.w3.org/2000/svg" width="743.679" height="505.92" viewBox="0 0 19677 13386" shape-rendering="geometricPrecision" text-rendering="geometricPrecision" image-rendering="optimizeQuality" fill-rule="evenodd" clip-rule="evenodd"><defs><style>.fil0{fill:#aa619f}</style></defs><g id="Capa_x0020_1"><g id="_3030261390848"><path class="fil0" d="M13146 5494h2880c289 0 526 237 526 526v6941c0 234-191 425-425 425H3549c-233 0-425-191-425-425v-2324c0-234 192-425 425-425h3083c233 0 425 191 425 425v1990l807-2V8283c0-234 191-425 425-425h3083c233 0 424 191 424 425v4340l824 1V6020c0-289 237-526 526-526zm-9252 5481h2393v1648H3894v-1648zm4739-2354h2394v4002H8633V8621zm4756-2364h2394v6368h-2394V6257z"/><path class="fil0" d="M6046 6561c602 337 1011 982 1011 1717v766c0 193-158 350-351 350H3475c-193 0-351-157-351-350v-766c0-736 409-1380 1011-1717-135-190-214-423-214-674 0-646 524-1169 1169-1169 646 0 1170 523 1170 1169 0 251-80 484-214 674zm-967 510c650 0 1181 531 1181 1180v384H3899v-384c0-649 531-1180 1180-1180zm11-1584c221 0 401 179 401 400s-180 400-401 400-400-179-400-400 179-400 400-400zM15541 1843c602 337 1011 982 1011 1717v766c0 193-157 350-350 350h-3232c-192 0-350-157-350-350v-766c0-736 409-1380 1011-1717-135-190-214-423-214-674 0-646 523-1169 1169-1169s1169 523 1169 1169c0 251-79 484-214 674zm-966 510c649 0 1180 531 1180 1180v384h-2360v-384c0-649 531-1180 1180-1180zm11-1584c221 0 400 179 400 400s-179 400-400 400-400-179-400-400 179-400 400-400zM10785 4207c602 337 1011 982 1011 1717v766c0 193-157 350-350 350H8214c-192 0-350-157-350-350v-766c0-735 409-1380 1011-1717-135-190-214-423-214-674 0-645 523-1169 1169-1169s1169 524 1169 1169c0 251-79 484-214 674zm-966 510c649 0 1180 531 1180 1180v384H8639v-384c0-649 531-1180 1180-1180zm11-1584c221 0 400 179 400 400s-179 401-400 401-400-180-400-401 179-400 400-400z"/></g></g></svg>