<svg xmlns="http://www.w3.org/2000/svg" width="743.679" height="505.89" viewBox="0 0 19677 13385" shape-rendering="geometricPrecision" text-rendering="geometricPrecision" image-rendering="optimizeQuality" fill-rule="evenodd" clip-rule="evenodd"><defs><style>.fil0{fill:#aa619f}</style></defs><g id="Capa_x0020_1"><g id="_3030261344864"><path class="fil0" d="M10823 11232c2267 484 5371-57 5710-1694V1869c-647-2571-7656-2412-8086 0l1 3538c-451-112-748-186-1223-186-2254 0-4082 1828-4082 4082 0 2255 1828 4082 4082 4082 1557 0 2910-871 3598-2153zM9218 5740v-698c1470 1068 5049 1068 6519 0v714c-365 1171-3703 1447-5468 827-300-335-655-621-1051-843zm1700 1822c1662 320 3774 101 4819-658v714c-305 976-2674 1330-4477 1062-45-362-186-789-342-1118zm386 1916c1590 221 3467-20 4433-721v713c-312 1001-2794 1348-4611 1041 92-299 178-720 178-1033zM7225 5976c1838 0 3328 1490 3328 3327 0 1838-1490 3327-3328 3327-1837 0-3327-1489-3327-3327 0-1837 1490-3327 3327-3327zm5251-5183c1797 0 3253 534 3253 1193 0 660-1456 1194-3253 1194s-3254-534-3254-1194c0-659 1457-1193 3254-1193zM9218 3904v-714c1470 1067 5049 1067 6519 0v714c-478 1532-6040 1532-6519 0z"/><path class="fil0" d="M8333 8171v-767h-721v-536h-768v539s-1038 60-1051 1098c-14 1039 992 1151 1045 1151h926c207 0 376 169 376 376 0 208-169 376-376 376H5935v786h913v526h764v-526s1266 17 1266-1162c0-1178-1114-1145-1114-1145h-919c-122 0-286-161-289-351-3-189 166-347 289-347 767-7 1488-18 1488-18z"/></g></g></svg>