<svg xmlns="http://www.w3.org/2000/svg" width="28.45mm" height="331.2" viewBox="0 0 2845 8763" shape-rendering="geometricPrecision" text-rendering="geometricPrecision" image-rendering="optimizeQuality" fill-rule="evenodd" clip-rule="evenodd"><path d="M748 8763h2097V0h-977c-77 165-197 317-285 473-95 168-165 340-237 534-355 949-183 1589 216 2469 161 354 326 699 483 1058 148 338 325 791 319 1215-6 426-162 670-395 953-85 102-297 278-416 355-175 112-293 365-406 558-223 382-341 702-399 1148z" fill="#d93611"/><path d="M373 8763c-3-237 78-441 161-617 73-156 183-372 280-492l596-571c333-303 670-722 767-1164 108-489-43-900-222-1262-88-178-261-438-389-584-89-101-193-198-257-318-142-264-303-843-363-1186-81-464-108-964-32-1435 36-220 90-431 160-619 103-277 224-431 255-515H889l-69 108C716 272 591 927 560 1144c-96 678-43 1356 136 1995 25 90 56 186 86 278 32 96 66 182 100 273 63 177 143 349 219 518 20 46 37 83 59 127l186 372c335 669 338 1297-19 1962l-174 292c-152 227-242 336-385 530C531 7811 0 8371 0 8763h373z" fill="#fde476"/><path d="M373 8763h375c58-446 176-766 399-1148 113-193 231-446 406-558 119-77 331-253 416-355 233-283 389-527 395-953 6-424-171-877-319-1215-157-359-322-704-483-1058-399-880-571-1520-216-2469 72-194 142-366 237-534 88-156 208-308 285-473h-539c-31 84-152 238-255 515-70 188-124 399-160 619-76 471-49 971 32 1435 60 343 221 922 363 1186 64 120 168 217 257 318 128 146 301 406 389 584 179 362 330 773 222 1262-97 442-434 861-767 1164l-596 571c-97 120-207 336-280 492-83 176-164 380-161 617z" fill="#f38140"/></svg>