<?xml version="1.0" encoding="UTF-8"?>
<!DOCTYPE svg PUBLIC "-//W3C//DTD SVG 1.1//EN" "http://www.w3.org/Graphics/SVG/1.1/DTD/svg11.dtd">
<!-- Creator: CorelDRAW X8 -->
<svg xmlns="http://www.w3.org/2000/svg" xml:space="preserve" width="440.859mm" height="300mm" version="1.1" style="shape-rendering:geometricPrecision; text-rendering:geometricPrecision; image-rendering:optimizeQuality; fill-rule:evenodd; clip-rule:evenodd"
viewBox="0 0 44086 30000"
 xmlns:xlink="http://www.w3.org/1999/xlink">
 <defs>
  <style type="text/css">
   <![CDATA[
    .fil0 {fill:#9B6298}
   ]]>
  </style>
 </defs>
 <g id="Capa_x0020_1">
  <metadata id="CorelCorpID_0Corel-Layer"/>
  <g id="_876053472">
   <path class="fil0" d="M34406 27363l0 0zm-15948 -25551c5348,0 9683,4335 9683,9682 0,5348 -4335,9683 -9683,9683 -2065,0 -3979,-647 -5550,-1748l-3324 940 921 -3352c-1090,-1566 -1730,-3470 -1730,-5523 0,-5347 4335,-9682 9683,-9682zm-5667 17533c-22,-15 -43,-31 -65,-47 22,16 43,31 65,47zm-183 -135c-22,-17 -44,-33 -65,-50 21,17 43,33 65,50zm-193 -150c-18,-15 -35,-29 -53,-43 18,14 35,28 53,43zm-179 -147c-17,-15 -35,-30 -52,-44 17,14 35,29 52,44zm5787 -18913l1210 0c1431,76 2843,425 4139,1074 2531,1266 4204,2902 5508,5507 501,1003 1073,2904 1073,4376 655,55 2199,881 2778,1265 1595,1062 2930,2665 3626,4460 406,1045 641,2174 686,3310l0 799c-49,1227 -327,2441 -859,3546 -91,190 -167,335 -254,507 -147,291 -203,273 -196,442l639 2337c109,381 606,2069 611,2318 -359,-8 -4418,-1240 -4655,-1250 -152,-6 -57,-16 -248,92 -94,54 -132,73 -233,123 -1720,860 -2807,1094 -4825,1094 -4072,0 -8129,-3252 -9023,-7090 -1015,0 -2214,-281 -2996,-519 -659,-201 -1239,-486 -1848,-789 -544,-271 -335,-274 -569,-239l-688 192c-520,155 -4519,1290 -4797,1297 5,-256 649,-2423 738,-2778 118,-473 246,-918 382,-1376 651,-2196 359,-902 -439,-3149 -648,-1822 -740,-2524 -740,-4533 0,-1552 546,-3380 1073,-4435 332,-662 606,-1154 1012,-1742 200,-288 399,-526 623,-783 618,-708 687,-760 1378,-1376 237,-211 486,-410 753,-595 1803,-1245 3963,-1971 6141,-2085zm16383 27363c-295,-6 -1810,-475 -2182,-579 -241,-67 -249,-56 -432,71 -168,116 -262,177 -429,277 -2388,1431 -5530,1496 -8064,-28 -814,-490 -1268,-876 -1887,-1571 -468,-525 -827,-1023 -1147,-1665 -116,-233 -368,-751 -390,-1016 291,-25 756,-120 1051,-180 932,-190 1948,-590 2758,-992 1598,-795 3005,-2032 4060,-3440 1042,-1392 2006,-3670 2151,-5408 635,53 2097,980 2622,1480 682,650 691,599 1312,1441 598,809 1046,1876 1267,2894 445,2062 -30,4443 -1148,6033 -277,393 -116,478 177,1558 76,280 274,799 281,1125z"/>
   <path class="fil0" d="M14953 8789l1817 0c0,-532 216,-937 481,-1218 1000,-1061 2976,-467 2976,1277 0,403 -200,850 -395,1070 -252,285 -504,439 -763,702 -1810,1833 -1479,551 -1479,3501l1816 0c0,-1864 -183,-1131 805,-2125l881 -818c2125,-2145 384,-5905 -2389,-5905 -1220,0 -1937,268 -2740,1069 -522,521 -1010,1430 -1010,2447z"/>
   <polygon class="fil0" points="17590,17637 19406,17637 19406,15879 17590,15879 "/>
  </g>
 </g>
</svg>
