<svg xmlns="http://www.w3.org/2000/svg" width="743.679" height="505.92" viewBox="0 0 19677 13386" shape-rendering="geometricPrecision" text-rendering="geometricPrecision" image-rendering="optimizeQuality" fill-rule="evenodd" clip-rule="evenodd"><defs><style>.fil0{fill:#aa619f}</style></defs><g id="Capa_x0020_1"><g id="_3030261353152"><path class="fil0" d="M15355 12209zM8239 808c2386 0 4320 1935 4320 4321s-1934 4320-4320 4320c-922 0-1776-289-2477-780l-1483 420 411-1496c-486-699-772-1548-772-2464 0-2386 1935-4321 4321-4321zM5710 8632c-10-7-19-14-29-21 10 7 19 14 29 21zm-81-61c-10-7-20-15-30-22 10 7 20 15 30 22zm-87-67c-7-6-15-12-23-19 8 7 16 13 23 19zm-79-65c-8-7-16-13-24-20 8 7 16 13 24 20zM8044 0h541c638 34 1268 190 1846 479 1130 565 1876 1295 2458 2458 224 447 479 1295 479 1952 292 24 981 393 1239 565 712 473 1308 1189 1618 1989 181 467 286 970 306 1477v357c-22 547-146 1089-383 1582-41 85-75 150-113 226-66 130-91 122-88 197l285 1043c49 170 271 924 273 1035-160-4-1972-554-2077-558-68-3-26-7-111 41-42 24-59 32-104 55-767 384-1252 488-2152 488-1817 0-3628-1451-4027-3164-453 0-988-125-1337-231-293-90-552-217-824-352-243-121-149-123-254-107l-307 86c-232 69-2016 575-2141 578 3-114 290-1081 330-1239 53-211 110-410 170-614 291-980 161-403-196-1405-289-813-330-1126-330-2023 0-692 244-1508 479-1978 148-296 271-515 452-778 89-128 178-235 278-349 275-316 306-339 615-614 105-94 216-183 336-266C6109 375 7073 51 8044 0zm7311 12209c-132-3-808-212-974-258-108-30-111-25-193 31-75 52-117 80-191 124-1066 639-2468 667-3598-13-363-218-566-390-842-700-209-235-369-457-512-743-52-104-164-336-174-454 130-11 337-53 469-80 416-85 869-263 1230-443 714-354 1341-906 1812-1534 465-621 895-1638 960-2413 283 23 936 437 1170 660 304 290 308 267 585 643 267 361 467 837 565 1291 199 920-13 1983-512 2692-123 175-52 213 79 695 34 125 122 357 126 502z"/><path class="fil0" d="M6675 3922h810c0-238 97-419 215-544 447-473 1328-208 1328 570 0 180-89 379-176 477-113 128-225 196-341 313-807 819-660 247-660 1563h811c0-832-82-505 359-948l393-365c948-957 171-2635-1066-2635-544 0-864 120-1222 477-233 232-451 638-451 1092zM7851 7869h811v-784h-811z"/></g></g></svg>