<?xml version="1.0" encoding="UTF-8"?>
<!DOCTYPE svg PUBLIC "-//W3C//DTD SVG 1.1//EN" "http://www.w3.org/Graphics/SVG/1.1/DTD/svg11.dtd">
<!-- Creator: CorelDRAW X8 -->
<svg xmlns="http://www.w3.org/2000/svg" xml:space="preserve" width="300mm" height="300mm" version="1.1" style="shape-rendering:geometricPrecision; text-rendering:geometricPrecision; image-rendering:optimizeQuality; fill-rule:evenodd; clip-rule:evenodd"
viewBox="0 0 30000 30000"
 xmlns:xlink="http://www.w3.org/1999/xlink">
 <defs>
  <style type="text/css">
   <![CDATA[
    .fil0 {fill:#AA609F}
   ]]>
  </style>
 </defs>
 <g id="Capa_x0020_1">
  <metadata id="CorelCorpID_0Corel-Layer"/>
  <g id="_682694448">
   <path class="fil0" d="M9174 4742c0,-1080 116,-1854 935,-2690 850,-868 1590,-997 2690,-997 1590,0 3135,1544 3135,3134 0,1121 -182,1876 -967,2660 -1292,1292 -3498,1302 -4797,31 -432,-424 -996,-1314 -996,-2138zm7804 0c0,-1491 -277,-2457 -1305,-3488 -1981,-1986 -5763,-1684 -7217,1419 -1103,2351 332,5435 2978,6078 3045,739 5544,-1673 5544,-4009z"/>
   <path class="fil0" d="M12530 10c2429,0 4397,1969 4397,4398 0,2428 -1968,4397 -4397,4397 -2429,0 -4397,-1969 -4397,-4397 0,-2429 1968,-4398 4397,-4398zm-24 891c1943,0 3519,1575 3519,3518 0,1944 -1576,3519 -3519,3519 -1943,0 -3518,-1575 -3518,-3519 0,-1943 1575,-3518 3518,-3518z"/>
   <path class="fil0" d="M25353 18191c1101,0 1994,893 1994,1994 0,1101 -893,1994 -1994,1994 -1101,0 -1994,-893 -1994,-1994 0,-1101 893,-1994 1994,-1994zm0 970c566,0 1024,458 1024,1024 0,566 -458,1024 -1024,1024 -566,0 -1024,-458 -1024,-1024 0,-566 458,-1024 1024,-1024z"/>
   <path class="fil0" d="M15749 28955l-1167 0 -3 -549c-2,-599 -1042,-598 -1042,-4l0 553 -8850 0 0 -553c0,-602 -1045,-595 -1045,-2l1 555 -1168 0c-491,0 -1168,-677 -1168,-1167l0 -676 15671 0c0,251 -12,474 -49,673 -100,524 -615,1170 -1180,1170zm-14073 -13028l0 10140c-1628,0 -1413,-173 -1413,1659 0,1161 1112,2274 2273,2274l13152 0c1157,0 2273,-1118 2273,-2274 3,-1721 78,-1652 -563,-1658l-902 -8 -9 -915 4 -3678c-7,-407 -79,-747 -496,-747 -390,0 -553,336 -553,738l0 4609 -12660 0 0 -9771 3873 0c864,0 870,-1106 -1,-1106l-4240 0c-476,0 -738,262 -738,737z"/>
   <path class="fil0" d="M10095 22195l861 -430 830 1557c366,592 -430,1075 -797,438l-894 -1565zm-4732 -1229l431 861 -219 95c-599,262 -995,-501 -460,-812l248 -144zm-491 -1536l61 614c-2037,1078 -888,3644 1475,2643 66,15 451,508 1359,529 753,17 946,-346 1468,-468 267,506 551,987 848,1488 1092,1842 3687,563 2696,-1313l-840 -1588 993 -359 5890 -2222c411,-162 737,-149 737,-676 0,-96 -75,-271 -183,-459l-2215 -3841c-454,-814 -1375,-352 -914,457l2083 3659 -1370 473 -6039 2257c-153,58 -142,64 -313,117 -996,312 -2126,1393 -2848,1393 -764,0 -1039,-904 -1556,-1763 -622,-1034 -375,-1359 538,-1898 241,-143 1119,-685 1325,-702l1047 1903c411,735 1355,247 880,-604l-1066 -1914c115,-173 530,-460 721,-630l5363 -4409c445,842 1392,270 854,-655 -189,-324 -354,-584 -601,-584 -71,0 -336,30 -579,227l-6418 5207c-1220,1090 -3396,1406 -3396,3118z"/>
   <path class="fil0" d="M12062 5050l0 -1230 1229 615 -1229 615zm-983 -2213l0 3196c0,287 315,369 553,369 201,0 2539,-1192 2992,-1432 371,-275 363,-762 0,-1065 -280,-235 -2888,-1520 -3144,-1464 -170,37 -401,227 -401,396z"/>
   <path class="fil0" d="M29761 19598l0 413 0 132c0,286 -238,520 -529,520l0 0c-290,0 -528,-234 -528,-520l0 -132 0 -413 0 -1910 0 -636c0,-173 -142,-314 -314,-314l-6169 0c-173,0 -314,141 -314,314l0 6169c0,173 141,314 314,314l6169 0c172,0 314,-141 314,-314l0 -534 0 -413 0 -132c0,-286 238,-520 528,-520l0 0c291,0 529,234 529,520l0 132 0 413 0 498c0,774 -634,1407 -1408,1407l-6096 0c-774,0 -1407,-633 -1407,-1407l0 -6096c0,-774 633,-1408 1407,-1408l6096 0c774,0 1408,634 1408,1408l0 599 0 1910z"/>
   <path class="fil0" d="M20850 5483l0 -412 0 -132c0,-286 238,-521 528,-521l0 0c291,0 529,235 529,521l0 132 0 412 0 1911 0 636c0,172 141,314 314,314l6169 0c172,0 314,-142 314,-314l0 -6169c0,-173 -142,-314 -314,-314l-6169 0c-173,0 -314,141 -314,314l0 534 0 413 0 132c0,286 -238,520 -529,520l0 0c-290,0 -528,-234 -528,-520l0 -132 0 -413 0 -498c0,-774 633,-1407 1407,-1407l6096 0c774,0 1408,633 1408,1407l0 6096c0,774 -634,1408 -1408,1408l-6096 0c-774,0 -1407,-634 -1407,-1408l0 -599 0 -1911z"/>
   <path class="fil0" d="M557 4903l6246 0c175,0 319,184 319,409l0 8032c0,225 -144,409 -319,409l-6246 0c-175,0 -318,-184 -318,-409l0 -8032c0,-225 143,-409 318,-409zm750 1007l4855 0 0 6883 -4855 0 0 -6883z"/>
   <path class="fil0" d="M4181 7938l387 0 124 0c268,0 487,-238 487,-528l0 -1c0,-290 -219,-528 -487,-528l-124 0 -387 0 -386 0 -124 0c-268,0 -487,238 -487,528l0 1c0,290 219,528 487,528l124 0 386 0zm0 -1057l0 1057 0 -1057z"/>
   <path class="fil0" d="M4179 8805l0 2 -949 -2 0 0 -387 0 -123 0c-268,0 -488,238 -488,528l0 0c0,291 220,529 488,529l123 0 1336 0 387 0 123 0c268,0 488,-238 488,-529l0 0c0,-290 -220,-528 -488,-528l-123 0 -387 0 0 0 0 0z"/>
   <polygon class="fil0" points="4181,8805 4181,9862 "/>
   <path class="fil0" d="M4179 10789l0 3 -949 -3 0 0 -387 0 -123 0c-268,0 -488,238 -488,529l0 0c0,291 220,528 488,528l123 0 1336 0 387 0 123 0c268,0 488,-237 488,-528l0 0c0,-291 -220,-529 -488,-529l-123 0 -387 0 0 0 0 0z"/>
   <path class="fil0" d="M25340 6377l0 -954 368 -7 124 0c270,0 490,-225 490,-498 0,-271 -217,-498 -490,-498l-124 0 -389 0 0 -344c-23,-331 238,-603 634,-598l322 0 389 0 124 0c269,0 490,-224 490,-498 0,-271 -217,-498 -490,-498l-124 0 -389 0 -477 1c-887,-1 -1341,670 -1433,1177l0 760 -389 0 -124 0c-270,0 -490,224 -490,498 0,270 217,498 490,498l124 0 368 0 0 961 0 389 0 124c0,269 224,490 498,490 271,0 498,-217 498,-490l0 -124 0 -389z"/>
   <path class="fil0" d="M22070 13382l-1121 239 -457 98 -146 31c-316,67 -526,355 -465,639 57,267 350,466 686,394l146 -31 1578 -336 456 -97 146 -31c317,-68 527,-356 466,-640 -57,-266 -350,-466 -686,-394l-146 31 -457 97z"/>
   <path class="fil0" d="M18131 8563l-671 929 -274 379 -87 121c-190,262 -152,616 84,786 221,160 572,111 773,-167l87 -121 945 -1308 274 -379 87 -121c190,-262 152,-616 -84,-786 -221,-160 -572,-111 -773,168l-87 120 -274 379z"/>
   <path class="fil0" d="M20137 10787l-922 682 -376 277 -120 89c-260,193 -332,541 -159,775 162,219 512,279 788,75l120 -89 1297 -959 376 -278 119 -88c261,-193 333,-542 160,-775 -162,-219 -512,-279 -788,-75l-120 89 -375 277z"/>
  </g>
 </g>
</svg>
