<svg xmlns="http://www.w3.org/2000/svg" width="743.679" height="505.92" viewBox="0 0 19677 13386" shape-rendering="geometricPrecision" text-rendering="geometricPrecision" image-rendering="optimizeQuality" fill-rule="evenodd" clip-rule="evenodd"><defs><style>.fil0{fill:#aa609f}</style></defs><g id="Capa_x0020_1"><g id="_3031540583040"><path class="fil0" d="M7239 2116c0-482 52-828 417-1200 379-388 709-445 1200-445 710 0 1399 689 1399 1398 0 500-81 837-431 1187-577 577-1561 581-2141 14-193-190-444-587-444-954zm3482 0c0-666-124-1097-582-1556-884-887-2572-752-3221 632-492 1050 149 2426 1329 2712 1359 330 2474-746 2474-1788z"/><path class="fil0" d="M8736 5c1084 0 1962 878 1962 1962 0 1083-878 1962-1962 1962-1083 0-1962-879-1962-1962C6774 883 7653 5 8736 5zm-11 397c868 0 1570 703 1570 1570s-702 1570-1570 1570c-867 0-1569-703-1569-1570S7858 402 8725 402zM14458 8117c491 0 889 398 889 889 0 492-398 890-889 890-492 0-890-398-890-890 0-491 398-889 890-889zm0 432c252 0 457 205 457 457 0 253-205 457-457 457-253 0-457-204-457-457 0-252 204-457 457-457zM10173 12920h-521l-1-245c-1-268-466-267-466-2v247H5237v-247c0-269-467-266-466-1v248h-521c-219 0-521-302-521-521v-302h6992c0 112-5 212-22 301-45 233-274 522-526 522zM3893 7106v4525c-726 0-630-77-630 740 0 518 496 1015 1014 1015h5868c516 0 1015-499 1015-1015 1-768 34-737-252-740l-402-3-4-408 2-1641c-4-182-36-334-222-334-174 0-247 150-247 329v2057H4387V7271h1728c385 0 388-494-1-494H4222c-212 0-329 117-329 329z"/><path class="fil0" d="M7650 9903l384-192 370 695c164 264-191 480-356 196l-398-699zm-2112-548l192 384-97 42c-267 117-444-223-205-362l110-64zm-219-686l28 275c-909 481-397 1625 658 1179 29 6 201 226 606 236 336 7 422-155 655-209 119 226 246 441 378 664 488 822 1646 251 1203-586l-375-708 443-161 2629-991c183-72 329-66 329-302 0-42-34-121-82-205l-989-1713c-202-364-613-157-408 203l930 1633-611 211-2695 1007c-68 26-63 29-139 53-445 139-949 621-1271 621-341 0-464-404-694-787-278-461-168-606 239-847 108-63 500-305 592-313l467 849c184 328 604 111 393-269l-476-854c51-77 237-205 322-281l2392-1968c199 376 622 121 382-292-85-145-158-260-268-260-32 0-150 13-259 101L6834 7278c-544 487-1515 628-1515 1391zM8527 2253v-548l549 274-549 274zm-438-987v1426c0 128 140 164 246 164 90 0 1133-531 1336-639 165-122 162-339 0-475-125-104-1289-678-1403-653-76 17-179 101-179 177zM16424 8745v243c0 127-106 232-235 232-130 0-236-105-236-232V7609c0-78-63-141-140-141h-2753c-77 0-140 63-140 141v2752c0 77 63 140 140 140h2753c77 0 140-63 140-140v-481c0-128 106-233 236-233 129 0 235 105 235 233v465c0 345-282 628-628 628h-2720c-345 0-628-283-628-628V7625c0-346 283-628 628-628h2720c346 0 628 282 628 628v1120zM12448 2447v-243c0-128 107-233 236-233 130 0 236 105 236 233v1379c0 77 63 140 140 140h2753c77 0 140-63 140-140V830c0-77-63-140-140-140h-2753c-77 0-140 63-140 140v482c0 127-106 232-236 232-129 0-236-105-236-232V847c0-346 283-628 628-628h2720c346 0 628 282 628 628v2720c0 345-282 627-628 627h-2720c-345 0-628-282-628-627V2447zM3394 2188h2787c78 0 142 82 142 182v3584c0 101-64 183-142 183H3394c-78 0-142-82-142-183V2370c0-100 64-182 142-182zm335 449h2166v3071H3729V2637z"/><path class="fil0" d="M5011 3542h228c119 0 217-106 217-236s-98-236-217-236h-455c-120 0-218 106-218 236s98 236 218 236h227zm0-472v472-472zM5010 3929v1l-423-1h-228c-120 0-218 106-218 235v1c0 129 98 235 218 235h879c119 0 217-106 217-235v-1c0-129-98-235-217-235h-228zM5011 3929v471zM5010 4814v1l-423-1h-228c-120 0-218 106-218 236s98 236 218 236h879c119 0 217-106 217-236s-98-236-217-236h-228zM14452 2845v-425l164-4h55c121 0 219-100 219-222 0-120-97-222-219-222h-228v-154c-11-147 106-268 282-266h373c120 0 219-100 219-222 0-121-97-223-219-223h-229l-213 1c-396-1-598 299-639 525v339h-229c-120 0-219 100-219 222 0 121 97 222 219 222h220v658c0 121 100 219 222 219 120 0 222-97 222-219v-229zM12993 5971l-500 107-204 43-65 14c-142 30-235 159-208 285 25 119 156 208 306 176l65-14 704-150 204-43 65-14c142-30 235-158 208-285-25-119-156-208-306-176l-65 14-204 43zM11236 3821l-300 414-122 169-39 54c-85 117-68 275 37 351 99 71 255 50 345-75l39-54 422-583 122-169 39-54c84-117 68-275-38-351-98-71-255-49-345 75l-38 54-122 169zM12130 4813l-411 304-168 124-53 40c-116 86-148 241-71 345 72 98 228 125 351 34l54-40 579-428 167-124 54-39c116-86 148-242 71-346-73-98-229-124-352-33l-53 39-168 124z"/></g></g></svg>