<svg xmlns="http://www.w3.org/2000/svg" width="743.679" height="505.92" viewBox="0 0 19677 13386" shape-rendering="geometricPrecision" text-rendering="geometricPrecision" image-rendering="optimizeQuality" fill-rule="evenodd" clip-rule="evenodd"><defs><style>.fil0{fill:#aa619f}</style></defs><g id="Capa_x0020_1"><g id="_3030261387104"><path class="fil0" d="M5385 2211L12797 34c217-72 359-32 379 149v2028h1080c152 0 277 124 277 277v10621c0 152-125 277-277 277H5421c-152 0-277-125-277-277V2488c0-134 99-236 223-272l18-5zm208 453h8493v10280H5593V2664zm7149-453l2-1705-5796 1705h5794z"/><path d="M6699 3777v1780c0 265 379 325 460 93 29-86 12-855 12-983 177 130 155 445 445 445 240 0 278-341 419-445 0 227 1 454-1 681 0 89 1 151 9 210 43 341 463 296 463-1V3777c0-170-280-373-461-68l-456 723-410-724c-179-298-480-105-480 69z" fill="#aa60a0"/><path d="M10051 3777v1780c0 260 350 328 447 108 33-76 25-154 24-264v-603l431 847c52 101 122 148 250 148 148 0 209-139 209-183V3830c0-383-474-381-472 1l1 705-429-824c-57-110-144-171-226-171-129 0-235 107-235 236z" fill="#aa609f"/><path class="fil0" d="M11621 3830v1335c0 805 1362 864 1362-53V3828c0-373-473-370-473 0l9 1319c-6 229-401 262-425-1V3828c0-374-473-374-473 2zM8715 3777v1785c0 283 298 231 916 231 300 0 300-467-1-471h-443v-419h445c300 0 297-471-27-471h-418v-419h445c297 0 329-472 0-472-626 0-917-31-917 236zM9165 9118h4241v471c130 0 236-106 236-235 0-130-106-236-236-236v471-471 471H6277c-129 0-235-106-235-235 0-130 106-236 235-236h2888zM9165 10467h4241v471c130 0 236-106 236-236 0-129-106-235-236-235v471-471 471H6277c-129 0-235-106-235-236 0-129 106-235 235-235h2888zM9165 7783h4241v471c130 0 236-106 236-235 0-130-106-236-236-236v471-471 471H6277c-129 0-235-106-235-235 0-130 106-236 235-236h2888z"/></g></g></svg>