<?xml version="1.0" encoding="UTF-8"?>
<!DOCTYPE svg PUBLIC "-//W3C//DTD SVG 1.1//EN" "http://www.w3.org/Graphics/SVG/1.1/DTD/svg11.dtd">
<!-- Creator: CorelDRAW X8 -->
<svg xmlns="http://www.w3.org/2000/svg" xml:space="preserve" width="300mm" height="300mm" version="1.1" style="shape-rendering:geometricPrecision; text-rendering:geometricPrecision; image-rendering:optimizeQuality; fill-rule:evenodd; clip-rule:evenodd"
viewBox="0 0 30000 30000"
 xmlns:xlink="http://www.w3.org/1999/xlink">
 <defs>
  <style type="text/css">
   <![CDATA[
    .fil2 {fill:#AA609F}
    .fil1 {fill:#AA60A0}
    .fil3 {fill:#AA619F}
    .fil0 {fill:#AA619F}
   ]]>
  </style>
 </defs>
 <g id="Capa_x0020_1">
  <metadata id="CorelCorpID_0Corel-Layer"/>
  <g id="_872012720">
   <path class="fil0" d="M5020 4954l16611 -4878c486,-162 804,-72 849,334l1 4544 2419 0c341,0 621,280 621,621l0 23804c0,342 -280,621 -621,621l-19800 0c-341,0 -621,-279 -621,-621l0 -23804c0,-300 223,-528 501,-609l40 -12zm466 1017l19035 0 0 23038 -19035 0 0 -23038zm16023 -1017l4 -3819 -12991 3819 12987 0z"/>
   <path class="fil1" d="M7965 8465l0 3990c0,593 850,728 1029,208 67,-194 27,-1916 27,-2203 398,292 349,998 998,998 539,0 623,-766 939,-998 0,509 2,1018 -1,1526 -1,199 3,338 19,471 98,764 1038,663 1038,-2l0 -3990c0,-380 -627,-837 -1033,-152l-1021 1619 -919 -1621c-401,-668 -1076,-236 -1076,154z"/>
   <path class="fil2" d="M15476 8465l0 3990c0,581 786,735 1003,241 74,-169 56,-344 54,-592l-1 -1350 967 1898c115,226 273,331 559,331 332,0 469,-312 469,-410l0 -3989c0,-859 -1063,-855 -1059,2l3 1581 -960 -1848c-128,-246 -323,-382 -507,-382 -290,0 -528,238 -528,528z"/>
   <path class="fil3" d="M18996 8584l0 2991c0,1806 3052,1937 3052,-117l0 -2879c0,-836 -1060,-829 -1060,0l19 2955c-14,516 -897,588 -951,0l0 -2954c0,-838 -1060,-840 -1060,4z"/>
   <path class="fil3" d="M12483 8465l0 3999c0,635 668,519 2054,519 671,0 671,-1046 -5,-1056l-993 0 0 -939 998 0c673,0 666,-1056 -59,-1056l-939 0 0 -939 998 0c665,0 739,-1056 1,-1056 -1403,0 -2055,-70 -2055,528z"/>
   <path class="fil0" d="M13490 20436l1056 0 1057 0 1056 0 1056 0 1056 0 1056 0 1057 0 1056 0 1056 0 0 0 0 1056c290,0 528,-238 528,-528l0 0c0,-291 -238,-528 -528,-528l0 1056 0 -1056 0 1056 0 0 -1056 0 -1056 0 -1057 0 -1056 0 -1056 0 -1056 0 -1056 0 -1057 0 -1056 0 -1056 0 -1056 0 -1056 0 -1057 0 -1056 0 -1056 0 -134 0c-290,0 -528,-238 -528,-528l0 0c0,-291 238,-528 528,-528l134 0 1056 0 1056 0 1057 0 1056 0 1056 0 1056 0z"/>
   <path class="fil0" d="M13490 23457l1056 0 1057 0 1056 0 1056 0 1056 0 1056 0 1057 0 1056 0 1056 0 0 0 0 1057c290,0 528,-238 528,-528l0 0c0,-291 -238,-529 -528,-529l0 1057 0 -1057 0 1057 0 0 -1056 0 -1056 0 -1057 0 -1056 0 -1056 0 -1056 0 -1056 0 -1057 0 -1056 0 -1056 0 -1056 0 -1056 0 -1057 0 -1056 0 -1056 0 -134 0c-290,0 -528,-238 -528,-528l0 0c0,-291 238,-529 528,-529l134 0 1056 0 1056 0 1057 0 1056 0 1056 0 1056 0z"/>
   <path class="fil0" d="M13490 17443l1056 0 1057 0 1056 0 1056 0 1056 0 1056 0 1057 0 1056 0 1056 0 0 0 0 1056c290,0 528,-237 528,-528l0 0c0,-290 -238,-528 -528,-528l0 1056 0 -1056 0 1056 0 0 -1056 0 -1056 0 -1057 0 -1056 0 -1056 0 -1056 0 -1056 0 -1057 0 -1056 0 -1056 0 -1056 0 -1056 0 -1057 0 -1056 0 -1056 0 -134 0c-290,0 -528,-237 -528,-528l0 0c0,-290 238,-528 528,-528l134 0 1056 0 1056 0 1057 0 1056 0 1056 0 1056 0z"/>
  </g>
 </g>
</svg>
