<svg xmlns="http://www.w3.org/2000/svg" width="743.679" height="505.92" viewBox="0 0 19677 13386" shape-rendering="geometricPrecision" text-rendering="geometricPrecision" image-rendering="optimizeQuality" fill-rule="evenodd" clip-rule="evenodd"><path d="M3033 9674h160c225-2978 2416-5408 5278-5996V2312c0-734 601-1335 1335-1335h64c735 0 1336 601 1336 1335v1376c2839 606 5005 3024 5229 5986h208c734 0 1335 601 1335 1335v65c0 734-601 1335-1335 1335H3033c-734 0-1335-601-1335-1335v-65c0-734 601-1335 1335-1335zm1105 0h11352c-257-2909-2700-5191-5676-5191S4395 6765 4138 9674zm6143-7329c0-236-193-429-429-429s-429 193-429 429v1208c130-7 260-11 391-11 157 0 313 5 467 16V2345zm-7215 8281h13544c236 0 429 193 429 429s-193 430-429 430H3066c-236 0-429-194-429-430s193-429 429-429z" fill="#aa619f"/></svg>