<svg xmlns="http://www.w3.org/2000/svg" width="743.679" height="505.92" viewBox="0 0 19677 13386" shape-rendering="geometricPrecision" text-rendering="geometricPrecision" image-rendering="optimizeQuality" fill-rule="evenodd" clip-rule="evenodd"><defs><style>.fil0{fill:#aa619f}</style></defs><g id="Capa_x0020_1"><g id="_3030261353824"><path class="fil0" d="M6875 439h4115c-59 148-92 309-92 478v67H7031c-566 0-1029 463-1029 1029v9785c0 567 463 1030 1029 1030h5605c566 0 1030-463 1030-1030V2013c0-197-56-382-153-538V917c0-103-13-203-35-298 427 241 718 700 718 1224v10166c0 772-632 1404-1404 1404H6875c-772 0-1404-632-1404-1404V1843c0-773 632-1404 1404-1404z"/><path class="fil0" d="M12190 27h30c207 0 400 61 563 165l-198 197c-4 5-8 9-12 13-107-55-228-86-357-86h-22c-432 0-786 354-786 786v1322c0 432 354 786 786 786h22c433 0 787-354 787-786V1102c0-108-23-212-63-306 10-7 19-15 27-24l182-181c76 145 119 310 119 484v1376c0 577-472 1048-1048 1048h-30c-576 0-1047-471-1047-1048V1075c0-576 471-1048 1047-1048zM12287 8078c-222-949-1019-1685-2016-1842 497-190 854-702 854-1305 0-765-574-1384-1283-1384-708 0-1283 619-1283 1384 0 603 357 1115 854 1305-996 157-1794 893-2016 1842 58 336 1158 510 2301 523-225-154-570-546-539-705 15-74 546-1275 546-1275-120-77-173-149-207-236 106 38 227 57 340 56 113 1 234-18 340-56-34 87-87 159-207 236 0 0 531 1201 546 1275 31 159-314 551-539 705 1146-13 2252-187 2309-523z"/><rect class="fil0" x="6722" y="10314" width="6207" height="415" rx="496" ry="187"/><rect class="fil0" x="9576" y="11469" width="3353" height="415" rx="469" ry="178"/></g></g></svg>