<svg xmlns="http://www.w3.org/2000/svg" width="743.679" height="505.92" viewBox="0 0 19677 13386" shape-rendering="geometricPrecision" text-rendering="geometricPrecision" image-rendering="optimizeQuality" fill-rule="evenodd" clip-rule="evenodd"><defs><style>.fil0{fill:#9c6299}</style></defs><g id="Capa_x0020_1"><g id="_3031540593728"><path class="fil0" d="M12289 7081c63-122 131-221 131-601 0-217-15-681-261-706-792-82-1637 216-2110-346-392-467 48-376 191-1023 75-338 37-2694 37-3151 181-42 238-130 601-130h3319c604 0 1045 374 1045 966v2744c0 340-197 642-471 810-279 170-731 131-1175 131-834 0-515-5-685 622-93 347-256 599-622 684zM5322 0h341c118 20 198 67 198 157 0 454-463 54-967 391-243 162-444 408-444 811v2717c0 401 219 690 471 836 529 305 1580-11 1750 210 74 97 61 1172 732 1228-25-108-59-119-90-251-64-271-53-576 21-837 51-179 86-220 303-220 357-1 715 1 1072 1 401 1 619-45 830-241 181-168 320-387 320-726V1333c0-341-201-622-412-764-294-198-532-177-999-177H6697c-211 1-392 34-392-183 0-100 44-209 157-209h2535c546 0 1092 476 1176 836 224-52 356-131 653-131h3423c806 0 1411 618 1411 1333v2822c0 205-73 443-148 584-456 852-1307 749-2152 749 0 331-169 706-361 945-373 464-1520 533-1520 126 0-374 378-106 486-533 64-251 29-472 11-538-669 0-1425 78-1924-220-176-105-483-430-533-643-446 193-1309 131-1803 131-19 115-24 162-26 288 0 762 523 375 523 783 0 390-901 332-1281 79-361-240-600-722-600-1150-888 0-1724 105-2161-766-75-149-139-354-139-567V1306c0-526 359-971 757-1176 93-48 315-106 533-130z"/><path class="fil0" d="M5731 2352c0-536 452-947 1028-610 123 72 211 218 383 218 318 0 326-340 836-340 381 0 601 395 601 706 0 577-536 1014-934 1313-504 380-511 295-727 165-222-134-467-298-645-479-236-239-542-592-542-973zm-392-131c0 490 105 810 437 1183 89 100 113 155 227 243 224 173 849 717 1139 717 149 0 223-59 324-120 204-122 373-208 570-371 399-328 935-847 935-1417 0-376-13-630-294-934-217-236-426-320-778-320-250 0-630 176-731 314-54-37-99-71-153-109-428-300-988-286-1383 114-138 141-293 432-293 700zM10956 4076c0 136 32 262 210 262h2743c297 0 248-419 52-419h-2848c-63 0-157 94-157 157zM10956 3292c0 167 37 262 262 262h2639c370 0 323-418 52-418h-2743c-96 0-210 72-210 156zM10956 2508c0 176 58 262 288 262h2587c402 0 350-418 78-418h-2743c-96 0-210 72-210 156z"/><g><path class="fil0" d="M6677 10173c479 176 886 500 1166 916h1c280-416 687-740 1165-916h1c-480-286-802-810-802-1408 0-905 733-1638 1637-1638s1638 733 1638 1638c0 598-322 1122-802 1408 474 175 879 495 1159 906 281-411 685-731 1159-906-480-286-801-810-801-1408 0-905 733-1638 1637-1638s1637 733 1637 1638c0 598-321 1122-801 1408 217 80 454 208 640 340 335 238 54 599-275 290-305-274-734-415-1201-415-859 0-1484 479-1778 1084h1c129 295 200 622 200 965-23 195-73 351-146 475 259 128 768 73 1723 79 1637 11 1956 92 2004-666-48-461-97-585-231-887-77-239 274-331 344-113 195 328 270 734 270 1112-106 1095-1054 941-2387 941-868 0-1572 66-1995-191-423 257-1127 191-1995 191s-1584 66-2007-192h-1c-422 258-1127 192-1995 192-1333 0-2282 154-2387-941 0-335 68-724 182-928 157-304 464-149 338 121-101 217-138 458-138 695 49 758 367 677 2005 666 958-6 1468 49 1726-81-71-123-117-279-136-473 0-336 69-657 193-948-291-603-918-1076-1783-1076-545 0-971 164-1344 486-274 276-536-59-242-281 218-191 472-343 750-445-480-286-802-810-802-1408 0-905 733-1638 1638-1638 904 0 1637 733 1637 1638 0 598-322 1122-802 1408zm7158-2652c-687 0-1243 557-1243 1244 0 686 556 1243 1243 1243s1243-557 1243-1243c0-687-556-1244-1243-1244zm-3990 0c687 0 1243 557 1243 1244 0 686-556 1243-1243 1243-686 0-1243-557-1243-1243 0-687 557-1244 1243-1244zm0 2892c1217 0 1965 936 1965 1855 0 881-327 713-1965 723-1637 11-1956 92-2004-666 0-963 787-1912 2004-1912zM5842 7521c686 0 1243 557 1243 1244 0 686-557 1243-1243 1243-687 0-1244-557-1244-1243 0-687 557-1244 1244-1244z"/><path class="fil0" d="M5469 8184c102 0 185 82 185 184s-83 185-185 185-185-83-185-185 83-184 185-184zM6221 8184c102 0 185 82 185 184s-83 185-185 185-185-83-185-185 83-184 185-184zM5348 9079c226 146 660 152 1036-30 266-126 430 185 167 329-42 40-789 364-1441-19-229-158-19-486 238-280z"/><g><path class="fil0" d="M14208 8184c-102 0-185 82-185 184s83 185 185 185 184-83 184-185-82-184-184-184zM13455 8184c-102 0-184 82-184 184s82 185 184 185c103 0 185-83 185-185s-82-184-185-184zM14329 9079c-226 146-660 152-1036-30-266-126-431 185-167 329 42 40 788 364 1441-19 229-158 19-486-238-280z"/></g><g><circle class="fil0" cx="9473" cy="8368" r="185"/><circle class="fil0" cx="10225" cy="8368" r="185"/><path class="fil0" d="M9352 9079c226 146 659 152 1035-30 266-126 431 185 167 329-41 40-788 364-1441-19-228-158-19-486 239-280z"/></g></g></g></g></svg>