<?xml version="1.0" encoding="UTF-8"?>
<!DOCTYPE svg PUBLIC "-//W3C//DTD SVG 1.1//EN" "http://www.w3.org/Graphics/SVG/1.1/DTD/svg11.dtd">
<!-- Creator: CorelDRAW X8 -->
<svg xmlns="http://www.w3.org/2000/svg" xml:space="preserve" width="440.859mm" height="300mm" version="1.1" style="shape-rendering:geometricPrecision; text-rendering:geometricPrecision; image-rendering:optimizeQuality; fill-rule:evenodd; clip-rule:evenodd"
viewBox="0 0 44086 30000"
 xmlns:xlink="http://www.w3.org/1999/xlink">
 <defs>
  <style type="text/css">
   <![CDATA[
    .fil0 {fill:#9C6299}
   ]]>
  </style>
 </defs>
 <g id="Capa_x0020_1">
  <metadata id="CorelCorpID_0Corel-Layer"/>
  <g id="_684574248">
   <g>
    <path class="fil0" d="M27536 15870c142,-273 293,-496 293,-1347 0,-486 -32,-1526 -584,-1583 -1775,-182 -3670,484 -4729,-775 -880,-1046 107,-843 428,-2292 168,-759 83,-6039 83,-7062 404,-94 534,-293 1346,-293l7438 0c1354,0 2342,839 2342,2167l0 6149c0,763 -441,1439 -1055,1814 -625,382 -1639,294 -2634,294 -1869,0 -1154,-11 -1533,1395 -210,777 -576,1342 -1395,1533zm-15614 -15870l763 0c264,44 445,150 445,351 0,1018 -1038,123 -2169,877 -544,364 -994,914 -994,1817l0 6091c0,897 490,1545 1056,1872 1184,685 3541,-24 3921,471 166,217 136,2626 1641,2751 -56,-240 -131,-264 -201,-560 -143,-608 -119,-1291 47,-1877 113,-400 191,-494 678,-494 800,-1 1603,2 2404,3 898,1 1387,-100 1860,-540 405,-376 717,-868 717,-1626l0 -6149c0,-763 -451,-1393 -925,-1712 -658,-442 -1190,-397 -2238,-397l-3924 1c-473,2 -878,76 -878,-411 0,-224 97,-468 352,-468l5680 0c1225,0 2447,1067 2635,1874 502,-117 800,-293 1464,-293l7672 0c1806,0 3162,1383 3162,2987l0 6324c0,461 -162,993 -331,1309 -1022,1908 -2929,1678 -4822,1678 0,742 -380,1583 -810,2118 -836,1041 -3407,1196 -3407,283 0,-838 847,-237 1090,-1195 142,-563 64,-1057 23,-1206 -1499,0 -3193,175 -4310,-492 -396,-236 -1084,-964 -1195,-1440 -1000,431 -2933,292 -4040,292 -43,259 -54,363 -59,644 0,1709 1171,842 1171,1757 0,874 -2018,743 -2870,177 -811,-538 -1346,-1619 -1346,-2578 -1989,0 -3863,235 -4843,-1716 -167,-334 -311,-795 -311,-1270l0 -6325c0,-1179 804,-2177 1697,-2637 208,-108 706,-238 1195,-291z"/>
    <g>
     <path class="fil0" d="M12837 5271c0,-1201 1013,-2123 2304,-1368 275,161 473,489 858,489 715,0 732,-761 1874,-761 855,0 1347,884 1347,1581 0,1294 -1201,2275 -2092,2945 -1131,850 -1147,660 -1631,368 -497,-301 -1045,-668 -1445,-1073 -529,-535 -1215,-1326 -1215,-2181zm-879 -293c0,1098 236,1816 981,2650 200,224 253,349 508,546 502,387 1903,1606 2552,1606 335,0 501,-132 728,-268 457,-273 835,-467 1277,-831 893,-735 2094,-1900 2094,-3176 0,-844 -29,-1413 -657,-2095 -487,-527 -956,-716 -1744,-716 -561,0 -1413,393 -1639,703 -121,-81 -221,-160 -342,-244 -959,-671 -2214,-641 -3100,257 -310,314 -658,968 -658,1568z"/>
     <g>
      <path class="fil0" d="M24549 9136c0,304 71,585 469,585l6149 0c664,0 554,-937 117,-937l-6384 0c-141,0 -351,211 -351,352z"/>
      <path class="fil0" d="M24549 7379c0,372 82,585 586,585l5914 0c830,0 725,-937 118,-937l-6149 0c-214,0 -469,162 -469,352z"/>
      <path class="fil0" d="M24549 5622c0,393 128,586 644,586l5798 0c900,0 786,-937 176,-937l-6149 0c-214,0 -469,161 -469,351z"/>
     </g>
    </g>
   </g>
   <g>
    <path class="fil0" d="M14959 22799l0 0c1072,395 1984,1121 2613,2054l0 -1c630,-932 1542,-1658 2614,-2053l0 0c-1076,-640 -1797,-1814 -1797,-3156 0,-2027 1643,-3670 3670,-3670 2026,0 3669,1643 3669,3670 0,1342 -721,2516 -1796,3156l0 0c1063,392 1969,1109 2597,2031 629,-922 1535,-1639 2598,-2031l0 0c-1075,-640 -1796,-1814 -1796,-3156 0,-2027 1643,-3670 3669,-3670 2027,0 3670,1643 3670,3670 0,1342 -721,2516 -1797,3156l0 0c488,180 1019,467 1435,762 752,533 122,1343 -616,651 -684,-614 -1644,-930 -2692,-930 -1925,0 -3326,1073 -3983,2428l0 0c289,663 450,1394 450,2164 -53,437 -164,786 -327,1064 580,286 1721,164 3860,178 3670,24 4383,206 4492,-1494 -108,-1032 -218,-1311 -518,-1986 -173,-538 614,-742 770,-255 439,736 606,1646 606,2493 -237,2455 -2363,2109 -5350,2109 -1944,0 -3523,146 -4470,-428l-1 0c-947,575 -2526,428 -4470,428 -1946,0 -3552,147 -4500,-430l0 0c-947,577 -2527,430 -4473,430 -2987,0 -5113,346 -5350,-2109 0,-752 154,-1624 408,-2081 353,-679 1041,-334 759,271 -226,486 -309,1027 -309,1558 108,1700 822,1518 4492,1494 2149,-14 3290,110 3868,-182 -158,-277 -262,-625 -304,-1060 0,-754 155,-1472 433,-2124 -651,-1353 -2059,-2413 -3997,-2413 -1221,0 -2175,367 -3012,1091 -613,616 -1200,-134 -543,-631 491,-428 1059,-769 1681,-998l1 0c-1076,-640 -1797,-1814 -1797,-3156 0,-2027 1643,-3670 3670,-3670 2026,0 3669,1643 3669,3670 0,1342 -721,2516 -1796,3156zm16041 -5942c-1538,0 -2786,1247 -2786,2786 0,1539 1248,2786 2786,2786 1539,0 2786,-1247 2786,-2786 0,-1539 -1247,-2786 -2786,-2786zm-8941 0c1538,0 2786,1247 2786,2786 0,1539 -1248,2786 -2786,2786 -1539,0 -2787,-1247 -2787,-2786 0,-1539 1248,-2786 2787,-2786zm0 6480c2727,0 4403,2098 4403,4157 0,1976 -734,1598 -4403,1622 -3670,24 -4384,206 -4492,-1494 0,-2158 1764,-4285 4492,-4285zm-8973 -6480c1538,0 2786,1247 2786,2786 0,1539 -1248,2786 -2786,2786 -1539,0 -2787,-1247 -2787,-2786 0,-1539 1248,-2786 2787,-2786z"/>
    <g>
     <path class="fil0" d="M12251 18341c228,0 413,185 413,414 0,229 -185,414 -413,414 -229,0 -414,-185 -414,-414 0,-229 185,-414 414,-414z"/>
     <path class="fil0" d="M13936 18341c229,0 414,185 414,414 0,229 -185,414 -414,414 -229,0 -414,-185 -414,-414 0,-229 185,-414 414,-414z"/>
     <path class="fil0" d="M11979 20347c507,327 1479,342 2322,-67 596,-282 965,415 374,738 -94,89 -1767,816 -3230,-43 -512,-355 -42,-1089 534,-628z"/>
    </g>
    <g>
     <path class="fil0" d="M31835 18341c-228,0 -414,185 -414,414 0,229 186,414 414,414 229,0 414,-185 414,-414 0,-229 -185,-414 -414,-414z"/>
     <path class="fil0" d="M30150 18341c-229,0 -414,185 -414,414 0,229 185,414 414,414 228,0 414,-185 414,-414 0,-229 -186,-414 -414,-414z"/>
     <path class="fil0" d="M32107 20347c-507,327 -1479,342 -2322,-67 -596,-282 -965,415 -374,738 94,89 1767,816 3230,-43 512,-355 42,-1089 -534,-628z"/>
    </g>
    <g>
     <circle class="fil0" cx="21224" cy="18755" r="414"/>
     <circle class="fil0" cx="22909" cy="18755" r="414"/>
     <path class="fil0" d="M20952 20347c507,327 1479,342 2322,-67 596,-282 965,415 374,738 -94,89 -1767,816 -3230,-43 -512,-355 -42,-1089 534,-628z"/>
    </g>
   </g>
  </g>
 </g>
</svg>
