<?xml version="1.0" encoding="UTF-8"?>
<!DOCTYPE svg PUBLIC "-//W3C//DTD SVG 1.1//EN" "http://www.w3.org/Graphics/SVG/1.1/DTD/svg11.dtd">
<!-- Creator: CorelDRAW X8 -->
<svg xmlns="http://www.w3.org/2000/svg" xml:space="preserve" width="300mm" height="300mm" version="1.1" style="shape-rendering:geometricPrecision; text-rendering:geometricPrecision; image-rendering:optimizeQuality; fill-rule:evenodd; clip-rule:evenodd"
viewBox="0 0 30000 30000"
 xmlns:xlink="http://www.w3.org/1999/xlink">
 <defs>
  <style type="text/css">
   <![CDATA[
    .fil0 {fill:#AB61A0}
   ]]>
  </style>
 </defs>
 <g id="Capa_x0020_1">
  <metadata id="CorelCorpID_0Corel-Layer"/>
  <g id="_869175688">
   <path class="fil0" d="M9606 7052c0,0 -731,-1183 -2506,-1420 -772,0 -1124,419 -1316,1080l0 7884c0,1381 -1750,4820 -1594,7500l-1783 2396 0 4882c0,0 -48,623 623,623 672,0 9059,0 9059,0 0,0 340,57 651,-313 310,-369 1871,-2300 1871,-2300 0,0 4263,-337 6264,-2607l799 0c1230,0 2236,-1007 2236,-2237l0 -721c0,0 3225,1176 3683,-2093 6,-769 -253,-1315 -839,-1849 0,0 1862,-1648 0,-3568 1862,-1921 0,-3569 0,-3569 586,-534 845,-1080 839,-1849 -458,-3269 -3683,-2093 -3683,-2093l0 -4562c0,-1230 -1006,-2236 -2236,-2236l-9832 0c-1230,0 -2236,1006 -2236,2236l0 4816zm5989 -5880c-3,30 -4,60 -4,90 0,645 522,1167 1167,1167 644,0 1166,-522 1166,-1167 0,-30 -1,-60 -3,-90l-2326 0zm8315 18139c0,-492 402,-895 894,-895l428 0c615,0 1119,504 1119,1119l0 204c0,615 -504,1118 -1119,1118l-428 0c-492,0 -894,-402 -894,-894l0 -652zm0 -3535c0,-492 402,-895 894,-895l428 0c615,0 1119,503 1119,1118l0 205c0,615 -504,1118 -1119,1118l-428 0c-492,0 -894,-403 -894,-895l0 -651zm0 -3586c0,-492 402,-895 894,-895l428 0c615,0 1119,503 1119,1118l0 205c0,615 -504,1118 -1119,1118l-428 0c-492,0 -894,-403 -894,-895l0 -651zm0 -3536c0,-491 402,-894 894,-894l428 0c615,0 1119,503 1119,1118l0 205c0,615 -504,1118 -1119,1118l-428 0c-492,0 -894,-403 -894,-895l0 -652zm-4839 16123c0,0 -2190,1416 -4956,1490l-2184 2574 -8363 0 0 -3934c227,-317 1757,-2367 1776,-2537 -23,-3563 1416,-5547 1597,-7763 181,-2215 0,-7819 0,-7819 0,0 2387,191 2665,3149l0 4389 0 0c0,314 257,572 571,572l0 0c314,0 571,-258 571,-572l0 0 0 -11946c0,-664 544,-1208 1209,-1208l2532 0c-2,30 -2,60 -2,90 0,1255 1016,2272 2271,2272 1254,0 2271,-1017 2271,-2272 0,-30 -1,-60 -2,-90l2532 0c665,0 1208,544 1208,1208l0 20016c0,665 -543,1209 -1208,1209l-9602 0c-665,0 -1209,-544 -1209,-1209l0 -2943 0 0c0,-314 -257,-571 -571,-571l0 0c-314,0 -571,257 -571,571l0 0 0 3087c0,1230 1006,2237 2236,2237l7229 0z"/>
   <path class="fil0" d="M13844 8730l996 0c0,346 -98,1171 586,1171 695,0 645,-748 645,-1171l1406 0c0,327 -76,1171 586,1171 722,0 644,-724 644,-1171l937 0c71,302 90,702 123,1049l227 2116c30,339 112,798 119,1111l-6737 0 468 -4276zm2227 -1699c0,-859 1406,-859 1406,0l0 468 -1406 0 0 -468zm-3398 7206l8260 0c85,0 469,-160 469,-528l-502 -5004c-189,-1372 -19,-1206 -2193,-1206l0 -410c0,-1078 -893,-1933 -1992,-1933 -939,0 -1819,829 -1873,1701 -45,733 291,650 -1115,642 -751,-5 -1001,56 -1054,762 -82,1075 -260,2181 -347,3227 -45,541 -100,1108 -163,1594 -49,372 -157,1155 510,1155z"/>
   <path class="fil0" d="M18238 19627l-2870 0c-1140,0 -1046,-1641 0,-1641l2870 0c985,0 985,1641 0,1641zm-4921 -938c0,1280 876,2168 1933,2168l3047 0c1025,0 1933,-1015 1933,-2050 0,-1073 -976,-2051 -2050,-2051l-2754 0c-1190,0 -2109,937 -2109,1933z"/>
   <rect class="fil0" x="9606" y="16252" width="1143" height="1143" rx="671" ry="671"/>
  </g>
 </g>
</svg>
