<svg xmlns="http://www.w3.org/2000/svg" width="743.679" height="505.92" viewBox="0 0 19677 13386" shape-rendering="geometricPrecision" text-rendering="geometricPrecision" image-rendering="optimizeQuality" fill-rule="evenodd" clip-rule="evenodd"><defs><style>.fil0{fill:#ab61a0}</style></defs><g id="Capa_x0020_1"><g id="_3030145776016"><path class="fil0" d="M7431 3147s-326-528-1118-634c-344 0-501 187-587 482v3518c0 616-781 2150-711 3346l-796 1069v2178s-21 278 278 278h4042s152 26 291-139c138-165 835-1026 835-1026s1902-151 2795-1164h356c549 0 998-449 998-998v-321s1439 524 1643-934c3-343-113-587-374-825 0 0 830-736 0-1593 830-856 0-1592 0-1592 261-238 377-482 374-825-204-1459-1643-934-1643-934V998c0-549-449-998-998-998H8429c-549 0-998 449-998 998v2149zm2673-2624c-1 13-2 27-2 40 0 288 233 521 521 521 287 0 520-233 520-521 0-13 0-27-1-40h-1038zm3710 8093c0-219 179-399 399-399h191c274 0 499 225 499 499v91c0 275-225 499-499 499h-191c-220 0-399-179-399-399v-291zm0-1577c0-220 179-399 399-399h191c274 0 499 224 499 499v91c0 274-225 499-499 499h-191c-220 0-399-180-399-399v-291zm0-1600c0-220 179-399 399-399h191c274 0 499 224 499 499v91c0 274-225 499-499 499h-191c-220 0-399-180-399-399v-291zm0-1577c0-220 179-400 399-400h191c274 0 499 225 499 499v92c0 274-225 498-499 498h-191c-220 0-399-179-399-399v-290zm-2159 7193s-977 632-2211 665l-975 1149H4738v-1756c101-141 783-1056 792-1132-10-1590 632-2475 712-3463 81-989 0-3489 0-3489s1065 85 1189 1405v1958c0 140 115 255 255 255 141 0 255-115 255-255V1062c0-297 243-539 539-539h1130c0 13-1 27-1 40 0 560 454 1014 1014 1014 559 0 1013-454 1013-1014 0-13 0-27-1-40h1130c296 0 539 242 539 539v8931c0 297-243 539-539 539H8480c-296 0-539-242-539-539V8680c0-140-114-255-255-255-140 0-255 115-255 255v1377c0 549 449 998 998 998h3226z"/><path class="fil0" d="M9323 3895h444c0 154-44 523 261 523 311 0 288-334 288-523h627c0 146-33 523 262 523 322 0 287-323 287-523h419c31 135 39 314 54 468l102 944c13 152 50 356 53 496H9113l210-1908zm993-758c0-383 627-383 627 0v209h-627v-209zM8800 6352h3686c37 0 209-71 209-235l-224-2233c-85-612-9-538-979-538v-183c0-481-398-863-888-863-419 0-812 371-836 759-20 328 130 291-498 287-335-2-446 25-470 340-37 480-116 973-155 1440-20 241-44 494-73 711-22 166-70 515 228 515zM11283 8757h-1281c-508 0-466-732 0-732h1281c440 0 440 732 0 732zm-2196-418c0 571 391 967 863 967h1359c458 0 863-453 863-915 0-478-436-915-915-915h-1229c-531 0-941 418-941 863z"/><rect class="fil0" x="7431" y="7251" width="510" height="510" rx="299" ry="299"/></g></g></svg>