<?xml version="1.0" encoding="UTF-8"?>
<!DOCTYPE svg PUBLIC "-//W3C//DTD SVG 1.1//EN" "http://www.w3.org/Graphics/SVG/1.1/DTD/svg11.dtd">
<!-- Creator: CorelDRAW X8 -->
<svg xmlns="http://www.w3.org/2000/svg" xml:space="preserve" width="300mm" height="300mm" version="1.1" style="shape-rendering:geometricPrecision; text-rendering:geometricPrecision; image-rendering:optimizeQuality; fill-rule:evenodd; clip-rule:evenodd"
viewBox="0 0 30000 30000"
 xmlns:xlink="http://www.w3.org/1999/xlink">
 <defs>
  <style type="text/css">
   <![CDATA[
    .fil0 {fill:#AB61A0}
   ]]>
  </style>
 </defs>
 <g id="Capa_x0020_1">
  <metadata id="CorelCorpID_0Corel-Layer"/>
  <g id="_678070096">
   <path class="fil0" d="M2237 6018l5767 0 0 991 -5495 0c-856,0 -1555,700 -1555,1556l0 13867c0,856 699,1556 1555,1556l24982 0c856,0 1555,-700 1555,-1556l0 -13867c0,-856 -699,-1556 -1555,-1556l-5495 0 0 -991 5767 0c1230,0 2236,1007 2236,2237l0 14488c0,1230 -1006,2236 -2236,2236l-8488 0 996 2047 9247 0c0,0 429,74 455,455 26,381 0,625 0,625 0,0 -448,1980 -3059,1863 -2610,-118 -24038,29 -24038,29 0,0 -2289,130 -2831,-1896l-8 -621c-5,-377 251,-455 428,-455l9236 0 995 -2047 -8459 0c-1230,0 -2236,-1006 -2236,-2236l0 -14488c0,-1230 1006,-2237 2236,-2237zm-1136 21988l27803 0c0,839 -1453,1014 -1990,1004 -2610,-50 -24038,10 -24038,10 -326,0 -1775,-230 -1775,-1014zm17091 -3027l-6412 0 -1016 2047 8444 0 -1016 -2047z"/>
   <path class="fil0" d="M15117 7441c-1553,0 -2563,-1745 -2479,-1919 48,-98 497,-97 864,-165 632,-117 1415,-397 1891,-804 136,-115 163,-178 310,-276 214,50 1399,806 1758,996 -131,563 -421,1012 -834,1393 -292,269 -992,775 -1510,775zm-2578 -2988c110,-1322 777,-2402 2227,-2402 1024,0 1851,101 2373,1142 142,283 153,561 263,791 -217,-50 -682,-368 -904,-502 -295,-177 -711,-494 -1029,-494 -575,0 -259,540 -1152,1016 -545,292 -1134,299 -1778,449zm-1054 351c0,1688 940,2263 1230,2696 -758,176 -1031,360 -1509,834 -948,938 -717,2168 -717,3677l1054 0 0 -2051c0,-648 676,-1406 1524,-1406l3866 0c848,0 1524,758 1524,1406l0 2051 1054 0c0,-1509 231,-2739 -717,-3677 -478,-474 -751,-658 -1509,-834 290,-433 1230,-1008 1230,-2696 0,-2174 -1125,-3808 -3281,-3808l-468 0c-2155,0 -3281,1634 -3281,3808z"/>
   <path class="fil0" d="M2405 8022l5599 0 0 984 -4987 0 0 11981 23966 0 0 -11981 -4987 0 0 -984 5599 0c213,0 387,174 387,386l0 13177c0,212 -174,386 -387,386l-25190 0c-213,0 -387,-174 -387,-386l0 -13177c0,-212 174,-386 387,-386z"/>
   <path class="fil0" d="M15000 18009l126 0 10073 -6087 -10 6c149,-85 250,-244 250,-426l0 0c0,-271 -223,-493 -496,-493l-126 0 -2821 0 0 -11009 -998 0 0 11607c0,212 174,386 386,386l1810 1 -8071 4878 -123 0 -123 0 -8071 -4878 1810 -1c212,0 386,-174 386,-386l0 -11607 -998 0 0 11009 -2821 0 -126 0c-273,0 -496,222 -496,493l0 0c0,182 101,341 250,426l-10 -6 10073 6087 126 0z"/>
   <polygon class="fil0" points="24992,19012 24992,19996 23986,19996 23986,19012 23002,19012 23002,18006 23986,18006 23986,17022 24992,17022 24992,18006 25975,18006 25975,19012 "/>
  </g>
 </g>
</svg>
