<svg xmlns="http://www.w3.org/2000/svg" width="743.679" height="505.92" viewBox="0 0 19677 13386" shape-rendering="geometricPrecision" text-rendering="geometricPrecision" image-rendering="optimizeQuality" fill-rule="evenodd" clip-rule="evenodd"><defs><style>.fil0{fill:#ab61a0}</style></defs><g id="Capa_x0020_1"><g id="_3030261348992"><path class="fil0" d="M4144 2685h2572v443H4265c-382 0-694 312-694 693v6188c0 382 312 694 694 694h11147c381 0 694-312 694-694V3821c0-381-313-693-694-693h-2452v-443h2573c549 0 998 449 998 998v6465c0 548-449 997-998 997h-3787l444 914h4126s191 33 203 203 0 279 0 279-200 883-1365 831c-1165-53-10725 13-10725 13s-1022 58-1263-846l-4-277c-2-168 112-203 191-203h4121l444-914H4144c-549 0-998-449-998-997V3683c0-549 449-998 998-998zm-507 9811h12405c0 374-648 452-888 448-1164-22-10725 4-10725 4-146 0-792-102-792-452zm7626-1351H8401l-453 914h3768l-453-914z"/><path class="fil0" d="M9891 3320c-693 0-1144-779-1106-856 21-44 221-44 385-74 282-52 631-177 844-358 60-52 73-80 138-124 96 23 624 360 784 445-58 251-188 451-372 621-130 120-443 346-673 346zM8740 1987c49-590 347-1072 994-1072 457 0 826 45 1059 510 63 126 68 250 117 353-97-23-304-165-403-224-132-80-317-221-460-221-256 0-115 241-513 454-244 130-506 133-794 200zm-470 157c0 753 419 1009 549 1202-339 79-460 161-674 373-422 418-320 967-320 1640h471v-915c0-289 301-627 680-627h1725c378 0 680 338 680 627v915h470c0-673 103-1222-320-1640-213-212-335-294-673-373 129-193 549-449 549-1202 0-970-503-1700-1464-1700h-209c-962 0-1464 730-1464 1700z"/><path class="fil0" d="M4218 3579h2498v440H4491v5345h10694V4019h-2225v-440h2498c95 0 173 78 173 173v5879c0 95-78 172-173 172H4218c-95 0-172-77-172-172V3752c0-95 77-173 172-173z"/><path class="fil0" d="M9838 8036h57l4494-2716-4 2c66-38 111-109 111-190 0-121-100-220-221-220h-1315V0h-446v5179c0 95 78 172 173 172h807L9893 7528h-110L6182 5351h808c94 0 172-77 172-172V0h-446v4912H5402c-122 0-221 99-221 220 0 81 44 152 111 190l-5-2 4495 2716h56zM14296 8483v439h-448v-439h-439v-449h439v-439h448v439h439v449z"/></g></g></svg>