<?xml version="1.0" encoding="UTF-8"?>
<!DOCTYPE svg PUBLIC "-//W3C//DTD SVG 1.1//EN" "http://www.w3.org/Graphics/SVG/1.1/DTD/svg11.dtd">
<!-- Creator: CorelDRAW X8 -->
<svg xmlns="http://www.w3.org/2000/svg" xml:space="preserve" width="440.859mm" height="299.974mm" version="1.1" style="shape-rendering:geometricPrecision; text-rendering:geometricPrecision; image-rendering:optimizeQuality; fill-rule:evenodd; clip-rule:evenodd"
viewBox="0 0 44086 29997"
 xmlns:xlink="http://www.w3.org/1999/xlink">
 <defs>
  <style type="text/css">
   <![CDATA[
    .fil0 {fill:#9C6299}
   ]]>
  </style>
 </defs>
 <g id="Capa_x0020_1">
  <metadata id="CorelCorpID_0Corel-Layer"/>
  <g id="_872537872">
   <g>
    <path class="fil0" d="M33570 3985l-467 0 -3085 0 0 334 0 962 0 961 0 18756 0 681 0 961 0 961c-59,1311 -1129,2358 -2448,2382 0,0 -16629,0 -18138,0 -1314,0 -2389,-1075 -2389,-2389l0 -1075c0,-263 215,-478 478,-478l17991 0c263,0 478,215 478,478l1 1082c35,817 708,1469 1533,1469 826,0 1499,-652 1534,-1469l22 -961 0 -961 0 -681 0 -18756 0 -961 0 -962 0 -961 -20 -961c23,-519 207,-1013 526,-1422 0,0 0,0 0,0 0,0 0,0 0,0 0,0 -1,1 -1,1l-498 0 -15642 0c-816,0 -1484,668 -1484,1484l0 21529 0 1009 -905 0 0 -22594c0,-1314 1075,-2389 2389,-2389l15642 0 499 0 1968 0c1340,0 2434,1056 2494,2382l0 643 0 467c0,263 -215,478 -478,478zm-3552 -945l3085 0 -15 -643c-35,-817 -709,-1469 -1534,-1469 -826,0 -1499,652 -1534,1469l-2 0 0 0 0 643zm-22053 23933l17066 0 0 628c28,546 226,1060 574,1482l-574 0 -15310 0c-966,0 -1756,-791 -1756,-1756l0 -354z"/>
    <g>
     <rect class="fil0" x="13518" y="18028" width="980" height="980"/>
     <polygon class="fil0" points="15541,18028 16520,18028 17500,18028 18480,18028 19460,18028 20439,18028 21419,18028 22399,18028 23379,18028 24358,18028 25338,18028 26318,18028 27297,18028 27537,18028 27537,19007 27297,19007 26318,19007 25338,19007 24358,19007 23379,19007 22399,19007 21419,19007 20439,19007 19460,19007 18480,19007 17500,19007 16520,19007 15541,19007 "/>
     <polygon class="fil0" points="23608,20003 24588,20003 25567,20003 26547,20003 27527,20003 27527,20983 26547,20983 25567,20983 24588,20983 23608,20983 22628,20983 21648,20983 20669,20983 20515,20983 19689,20983 19535,20983 19535,20003 19689,20003 20515,20003 20669,20003 21648,20003 22628,20003 "/>
     <polygon class="fil0" points="16520,20003 17500,20003 18479,20003 18541,20003 18541,20983 18479,20983 17500,20983 16520,20983 15540,20983 15540,20003 "/>
     <polygon class="fil0" points="19459,22016 18479,22016 17500,22016 16520,22016 15540,22016 15540,22996 16520,22996 17500,22996 18479,22996 19459,22996 20439,22996 21419,22996 22398,22996 22552,22996 23378,22996 23532,22996 23532,22016 23378,22016 22552,22016 22398,22016 21419,22016 20439,22016 "/>
     <polygon class="fil0" points="26547,21978 25567,21978 24588,21978 24526,21978 24526,22958 24588,22958 25567,22958 26547,22958 27527,22958 27527,21978 "/>
     <polygon class="fil0" points="22389,23989 24348,23989 23369,23989 "/>
     <polygon class="fil0" points="15531,23989 16511,23989 17490,23989 18470,23989 19450,23989 20429,23989 21409,23989 22389,23989 23369,23989 24348,23989 25328,23989 26308,23989 27288,23989 27527,23989 27527,25007 27288,25007 26308,25007 25328,25007 24348,25007 23369,25007 22389,25007 21409,25007 20429,25007 19450,25007 18470,25007 17490,25007 16511,25007 15531,25007 "/>
     <polygon class="fil0" points="15531,14025 16511,14025 17490,14025 18470,14025 19450,14025 20429,14025 21409,14025 22389,14025 23369,14025 24348,14025 25328,14025 26308,14025 27288,14025 27527,14025 27527,15005 27288,15005 26308,15005 25328,15005 24348,15005 23369,15005 22389,15005 21409,15005 20429,15005 19450,15005 18470,15005 17490,15005 16511,15005 15531,15005 "/>
     <polygon class="fil0" points="19459,16026 18479,16026 17500,16026 16520,16026 15540,16026 15540,17006 16520,17006 17500,17006 18479,17006 19459,17006 20439,17006 21419,17006 22398,17006 22552,17006 23378,17006 23532,17006 23532,16026 23378,16026 22552,16026 22398,16026 21419,16026 20439,16026 "/>
     <polygon class="fil0" points="26547,16026 25567,16026 24588,16026 24526,16026 24526,17006 24588,17006 25567,17006 26547,17006 27527,17006 27527,16026 "/>
     <rect class="fil0" x="13518" y="14025" width="980" height="980"/>
     <rect class="fil0" x="13518" y="22016" width="980" height="980"/>
     <polygon class="fil0" points="16527,9496 17506,9496 18486,9496 18534,9496 18534,10476 18486,10476 17506,10476 16527,10476 "/>
     <polygon class="fil0" points="23556,9496 24498,9496 24545,9496 24545,10476 24498,10476 23556,10476 23508,10476 22528,10476 21549,10476 21501,10476 20522,10476 19542,10476 19542,9496 20522,9496 21501,9496 21549,9496 22528,9496 23508,9496 "/>
     <polygon class="fil0" points="22057,11494 22999,11494 23047,11494 23047,12473 22999,12473 22057,12473 22010,12473 21030,12473 20051,12473 20003,12473 19023,12473 18044,12473 18044,11494 19023,11494 20003,11494 20051,11494 21030,11494 22010,11494 "/>
    </g>
    <path class="fil0" d="M36089 15005l954 0 0 -5573c0,-788 -645,-1433 -1433,-1433l-585 0 -3944 0 0 16245 1567 3017c0,0 417,607 771,0 354,-607 1606,-3017 1606,-3017l0 -15297 550 0c283,0 514,231 514,514l0 3428 0 2116zm-5008 -7006l924 0c0,-579 469,-1048 1048,-1048 579,0 1048,469 1048,1048l924 0c0,-1089 -883,-1972 -1972,-1972 -1089,0 -1972,883 -1972,1972zm969 995l1998 0 0 4006 -1998 0 0 -4006zm0 5002l1998 0 0 1003 -1998 0 0 -1003zm0 2030l1998 0 0 7494 -1998 0 0 -7494zm264 8498l1458 0 -731 1265 -727 -1265z"/>
   </g>
   <polygon class="fil0" points="34101,7999 35025,7999 "/>
   <polygon class="fil0" points="31081,7999 32005,7999 "/>
   <path class="fil0" d="M20536 2506c0,0 -656,-83 -1031,521 -430,-31 -1438,72 -1481,1450 -640,617 -624,1391 0,1991 19,410 71,1537 1493,1494 219,371 466,484 1019,519 553,-35 804,-148 1024,-519 1422,43 1474,-1084 1493,-1494 624,-600 640,-1374 0,-1991 -44,-1378 -1051,-1481 -1481,-1450 -376,-604 -1036,-521 -1036,-521zm2 5039c0,0 -288,39 -379,-379 -170,-474 -668,-218 -668,-218 -163,87 -576,0 -442,-367 281,-541 -63,-695 -316,-794 -298,-77 -342,-462 0,-597 342,-134 496,-318 316,-768 -152,-391 190,-561 420,-420 113,82 564,199 691,-161 51,-289 208,-393 378,-389 170,-4 328,100 378,389 128,360 578,243 692,161 230,-141 572,29 419,420 -179,450 16,639 317,768 301,130 260,515 0,597 -253,99 -597,253 -316,794 114,377 -257,437 -443,367 0,0 -549,-175 -667,218 -79,387 -380,379 -380,379z"/>
  </g>
 </g>
</svg>
