<svg xmlns="http://www.w3.org/2000/svg" width="743.679" height="505.92" viewBox="0 0 19677 13386" shape-rendering="geometricPrecision" text-rendering="geometricPrecision" image-rendering="optimizeQuality" fill-rule="evenodd" clip-rule="evenodd"><defs><style>.fil0{fill:#9c6299}</style></defs><g id="Capa_x0020_1"><g id="_872537872"><path class="fil0" d="M14987 1773h-1587v10549c-26 585-504 1053-1093 1064H4205c-587 0-1067-480-1067-1067v-480c0-118 96-214 214-214h8036c117 0 213 96 213 214l1 483c15 365 316 656 684 656 369 0 670-291 686-656l9-429V1493l-8-429c10-232 92-453 234-635H5998c-365 0-663 299-663 663v10067h-404V1067C4931 480 5411 0 5998 0h8089c598 0 1087 472 1114 1064v496c0 117-96 213-214 213zm-1587-422h1378l-6-287c-16-365-317-656-685-656-369 0-670 291-686 656h-1v287zM3550 12041h7623v281c12 244 101 473 256 662H4334c-431 0-784-354-784-785v-158z"/><path class="fil0" d="M6030 8046h438v438h-438zM6934 8046h5358v437H6934zM10537 8928h1751v438H8718v-438h1382zM7371 8928h903v438H6934v-438zM8684 9827H6934v438h3569v-438H9122zM11850 9810h-903v438h1341v-438zM9993 10708h875-437zM6930 10708h5358v455H6930zM6930 6258h5358v438H6930zM8684 7152H6934v437h3569v-437H9122zM11850 7152h-903v437h1341v-437zM6030 6258h438v438h-438zM6030 9827h438v438h-438zM7374 4235h897v438h-897zM10514 4235h442v438H8721v-438h1772zM9845 5127h442v438H8052v-438h1772zM16112 6696h426V4206c0-352-288-640-640-640h-2023v7256l700 1348s186 271 345 0c158-271 717-1348 717-1348V3990h246c126 0 229 103 229 229v2477zm-2237-3130h413c0-258 209-468 468-468s468 210 468 468h413c0-486-394-881-881-881-486 0-881 395-881 881zm433 445h893v1789h-893V4011zm0 2234h893v448h-893v-448zm0 907h893v3347h-893V7152zm118 3795h651l-326 565-325-565zM15224 3566h413zM13875 3566h413zM9165 1113s-293-37-460 232c-192-13-643 33-662 648-286 276-279 621 0 889 9 183 32 687 667 668 98 165 208 216 455 232 247-16 359-67 458-232 635 19 658-485 666-668 279-268 286-613 0-889-19-615-469-661-661-648-168-269-463-232-463-232zm1 2250s-129 18-169-169c-76-212-299-97-299-97-72 39-257 0-197-164 125-242-28-311-141-355-133-34-153-206 0-266s221-143 141-344c-68-174 85-250 188-187 50 36 251 89 308-72 23-129 93-176 169-174 76-2 147 45 169 174 57 161 258 108 309 72 103-63 255 13 187 187-80 201 7 286 142 344 134 58 116 230 0 266-113 44-267 113-141 355 50 168-115 195-198 164 0 0-246-78-298 97-36 173-170 169-170 169z"/></g></g></svg>