<?xml version="1.0" encoding="UTF-8"?>
<!DOCTYPE svg PUBLIC "-//W3C//DTD SVG 1.1//EN" "http://www.w3.org/Graphics/SVG/1.1/DTD/svg11.dtd">
<!-- Creator: CorelDRAW X8 -->
<svg xmlns="http://www.w3.org/2000/svg" xml:space="preserve" width="440.859mm" height="300mm" version="1.1" style="shape-rendering:geometricPrecision; text-rendering:geometricPrecision; image-rendering:optimizeQuality; fill-rule:evenodd; clip-rule:evenodd"
viewBox="0 0 44086 30000"
 xmlns:xlink="http://www.w3.org/1999/xlink">
 <defs>
  <style type="text/css">
   <![CDATA[
    .fil1 {fill:#9C6299}
    .fil0 {fill:#FDDA97}
   ]]>
  </style>
 </defs>
 <g id="Capa_x0020_1">
  <metadata id="CorelCorpID_0Corel-Layer"/>
  <g id="_872542648">
   <path class="fil0" d="M24946 29991c1,0 1,0 2,0 12799,-3576 12088,-23841 12088,-23841 0,0 -153,-569 -813,-254 0,0 -4914,4145 -10930,0 -134,-68 -252,-87 -347,-83 -95,-4 -212,15 -347,83 -6016,4145 -10930,0 -10930,0 -660,-315 -812,254 -812,254 0,0 -711,20265 12088,23841 0,0 1,0 1,0zm2441 -13068l-90 0 0 -4389 -8 0c0,-1315 -1066,-2382 -2381,-2382 -1316,0 -2382,1067 -2382,2382l0 4389 -95 0c-760,0 -1382,622 -1382,1382l0 3950c0,760 622,1382 1382,1382l4956 0c760,0 1382,-622 1382,-1382l0 -3950c0,-760 -622,-1382 -1382,-1382zm-1000 0l-2951 0 0 -4322c0,-814 660,-1473 1473,-1473 814,0 1473,659 1473,1473l5 0 0 4322zm922 992l-4800 0c-282,0 -513,231 -513,513l0 3704c0,283 231,513 513,513l4800 0c282,0 513,-230 513,-513l0 -3704c0,-282 -231,-513 -513,-513zm-2400 892c814,0 1473,660 1473,1473 0,814 -659,1473 -1473,1473 -813,0 -1473,-659 -1473,-1473 0,-813 660,-1473 1473,-1473z"/>
   <g>
    <path class="fil1" d="M19125 9c6673,0 12083,5409 12083,12082 0,6673 -5410,12083 -12083,12083 -6673,0 -12082,-5410 -12082,-12083 0,-6673 5409,-12082 12082,-12082zm-8230 19566c309,-652 1736,-3283 5144,-4593 1283,-313 1272,539 3086,460 1952,-58 1708,-628 2917,-460 459,121 3268,839 5305,4602 -2127,2344 -5057,3631 -8222,3631 -3266,0 -6195,-1403 -8230,-3640zm17099 -768c-14,-26 -1931,-3825 -6062,-4747 -449,-64 -873,15 -873,15 0,0 -1246,477 -1934,467 -654,10 -1342,-224 -2094,-498 -274,-63 -670,-60 -924,-15 0,0 -3667,909 -5858,4767 -1411,-1864 -2248,-4187 -2248,-6705 0,-6143 4981,-11124 11124,-11124 6144,0 11124,4981 11124,11124 0,2523 -840,4850 -2255,6716z"/>
    <path class="fil1" d="M19125 4835c2404,0 4352,1949 4352,4352 0,2404 -1948,4352 -4352,4352 -2403,0 -4351,-1948 -4351,-4352 0,-2403 1948,-4352 4351,-4352zm0 957c1863,0 3373,1510 3373,3372 0,1863 -1510,3373 -3373,3373 -1862,0 -3372,-1510 -3372,-3373 0,-1862 1510,-3372 3372,-3372z"/>
   </g>
  </g>
 </g>
</svg>
