<svg xmlns="http://www.w3.org/2000/svg" width="743.679" height="505.92" viewBox="0 0 19677 13386" shape-rendering="geometricPrecision" text-rendering="geometricPrecision" image-rendering="optimizeQuality" fill-rule="evenodd" clip-rule="evenodd"><defs><style>.fil1{fill:#9c6299}</style></defs><g id="Capa_x0020_1"><g id="_3030261336896"><path d="M11134 13386h1c5714-1597 5397-10644 5397-10644s-68-254-363-114c0 0-2194 1851-4880 0-60-30-112-38-155-37-42-1-94 7-154 37-2686 1851-4880 0-4880 0-295-140-363 114-363 114s-317 9047 5397 10644zm1090-5835h-40V5592h-3c0-587-477-1063-1064-1063s-1063 476-1063 1063v1959h-42c-340 0-617 278-617 617v1764c0 339 277 617 617 617h2212c340 0 617-278 617-617V8168c0-339-277-617-617-617zm-446 0h-1318V5622c0-364 295-658 658-658s657 294 657 658h3v1929zm411 443h-2142c-126 0-230 103-230 229v1654c0 126 104 229 230 229h2142c126 0 229-103 229-229V8223c0-126-103-229-229-229zm-1071 399c363 0 657 294 657 657s-294 658-657 658-658-295-658-658 295-657 658-657z" fill="#fdda97"/><path class="fil1" d="M8536 0c2979 0 5394 2415 5394 5394 0 2980-2415 5395-5394 5395S3141 8374 3141 5394C3141 2415 5557 0 8536 0zM4861 8736c138-291 775-1467 2297-2051 572-140 568 241 1378 205 871-26 762-280 1302-205 205 54 1459 374 2368 2055-949 1046-2257 1621-3670 1621-1459 0-2766-627-3675-1625zm7634-343c-6-12-862-1708-2706-2120-201-29-390 7-390 7s-556 213-863 208c-292 5-599-100-935-222-123-28-300-27-413-7 0 0-1637 406-2615 2129-630-833-1004-1869-1004-2994 0-2743 2224-4966 4967-4966s4966 2223 4966 4966c0 1127-375 2165-1007 2999z"/><path class="fil1" d="M8536 2155c1073 0 1943 870 1943 1943s-870 1943-1943 1943-1943-870-1943-1943 870-1943 1943-1943zm0 427c831 0 1505 674 1505 1505 0 832-674 1506-1505 1506-832 0-1506-674-1506-1506 0-831 674-1505 1506-1505z"/></g></g></svg>